G75*
G70*
%OFA0B0*%
%FSLAX24Y24*%
%IPPOS*%
%LPD*%
%AMOC8*
5,1,8,0,0,1.08239X$1,22.5*
%
%ADD10C,0.0000*%
%ADD11R,0.0659X0.0777*%
%ADD12C,0.1780*%
%ADD13C,0.0820*%
%ADD14R,0.0560X0.0960*%
%ADD15R,0.1497X0.0946*%
%ADD16R,0.0710X0.1261*%
%ADD17R,0.2363X0.2521*%
%ADD18R,0.0474X0.0513*%
%ADD19R,0.0552X0.0552*%
%ADD20R,0.0297X0.0552*%
%ADD21R,0.0513X0.0474*%
%ADD22C,0.0790*%
D10*
X002300Y001098D02*
X002300Y025298D01*
X005700Y025298D01*
X005737Y025371D01*
X005777Y025441D01*
X005820Y025510D01*
X005867Y025577D01*
X005918Y025641D01*
X005971Y025702D01*
X006027Y025761D01*
X006086Y025817D01*
X006148Y025870D01*
X006212Y025920D01*
X006279Y025967D01*
X006347Y026010D01*
X006418Y026051D01*
X006491Y026087D01*
X006565Y026120D01*
X006641Y026149D01*
X006719Y026175D01*
X006797Y026196D01*
X006877Y026214D01*
X006957Y026228D01*
X007037Y026238D01*
X007119Y026244D01*
X007200Y026246D01*
X007281Y026244D01*
X007363Y026238D01*
X007443Y026228D01*
X007523Y026214D01*
X007603Y026196D01*
X007681Y026175D01*
X007759Y026149D01*
X007835Y026120D01*
X007909Y026087D01*
X007982Y026051D01*
X008053Y026010D01*
X008121Y025967D01*
X008188Y025920D01*
X008252Y025870D01*
X008314Y025817D01*
X008373Y025761D01*
X008429Y025702D01*
X008482Y025641D01*
X008533Y025577D01*
X008580Y025510D01*
X008623Y025441D01*
X008663Y025371D01*
X008700Y025298D01*
X008700Y001098D01*
X008663Y001025D01*
X008623Y000955D01*
X008580Y000886D01*
X008533Y000819D01*
X008482Y000755D01*
X008429Y000694D01*
X008373Y000635D01*
X008314Y000579D01*
X008252Y000526D01*
X008188Y000476D01*
X008121Y000429D01*
X008053Y000386D01*
X007982Y000345D01*
X007909Y000309D01*
X007835Y000276D01*
X007759Y000247D01*
X007681Y000221D01*
X007603Y000200D01*
X007523Y000182D01*
X007443Y000168D01*
X007363Y000158D01*
X007281Y000152D01*
X007200Y000150D01*
X007119Y000152D01*
X007037Y000158D01*
X006957Y000168D01*
X006877Y000182D01*
X006797Y000200D01*
X006719Y000221D01*
X006641Y000247D01*
X006565Y000276D01*
X006491Y000309D01*
X006418Y000345D01*
X006347Y000386D01*
X006279Y000429D01*
X006212Y000476D01*
X006148Y000526D01*
X006086Y000579D01*
X006027Y000635D01*
X005971Y000694D01*
X005918Y000755D01*
X005867Y000819D01*
X005820Y000886D01*
X005777Y000955D01*
X005737Y001025D01*
X005700Y001098D01*
X002300Y001098D01*
D11*
X004600Y020153D03*
X004600Y022043D03*
D12*
X003531Y010098D03*
X004713Y008247D03*
X005894Y010098D03*
D13*
X006997Y003598D03*
X007997Y003598D03*
X007997Y002598D03*
X006997Y002598D03*
X005100Y002498D03*
X004100Y002498D03*
X003100Y002498D03*
X003200Y019698D03*
X003200Y020698D03*
X003200Y021698D03*
X003100Y024498D03*
X004100Y024498D03*
X005100Y024498D03*
X006997Y023810D03*
X006997Y022810D03*
X007997Y022810D03*
X007997Y023810D03*
X007997Y021094D03*
X007997Y020094D03*
X006997Y020094D03*
X006997Y021094D03*
D14*
X006410Y018518D03*
X005500Y018518D03*
X004590Y018518D03*
D15*
X005500Y016078D03*
D16*
X004602Y018588D03*
X006398Y018588D03*
D17*
X005500Y015761D03*
D18*
X002900Y015732D03*
X002900Y015063D03*
X002900Y016663D03*
X002900Y017332D03*
X008100Y017332D03*
X008100Y016663D03*
X008100Y015732D03*
X008100Y015063D03*
X008100Y011532D03*
X008100Y010863D03*
D19*
X007713Y012198D03*
X006887Y012198D03*
D20*
X006800Y007810D03*
X006426Y007810D03*
X007174Y007810D03*
X007174Y006786D03*
X006426Y006786D03*
D21*
X006365Y005598D03*
X007035Y005598D03*
X007365Y009598D03*
X008035Y009598D03*
D22*
X003755Y006282D02*
X003045Y006282D01*
X003045Y004314D02*
X003755Y004314D01*
M02*
