G75*
G70*
%OFA0B0*%
%FSLAX24Y24*%
%IPPOS*%
%LPD*%
%AMOC8*
5,1,8,0,0,1.08239X$1,22.5*
%
%ADD10C,0.0000*%
%ADD11C,0.1700*%
%ADD12C,0.0740*%
%ADD13C,0.0710*%
%ADD14C,0.0100*%
%ADD15OC8,0.0360*%
%ADD16C,0.0320*%
%ADD17C,0.0240*%
D10*
X002300Y001098D02*
X002300Y025298D01*
X005700Y025298D01*
X005737Y025371D01*
X005777Y025441D01*
X005820Y025510D01*
X005867Y025577D01*
X005918Y025641D01*
X005971Y025702D01*
X006027Y025761D01*
X006086Y025817D01*
X006148Y025870D01*
X006212Y025920D01*
X006279Y025967D01*
X006347Y026010D01*
X006418Y026051D01*
X006491Y026087D01*
X006565Y026120D01*
X006641Y026149D01*
X006719Y026175D01*
X006797Y026196D01*
X006877Y026214D01*
X006957Y026228D01*
X007037Y026238D01*
X007119Y026244D01*
X007200Y026246D01*
X007281Y026244D01*
X007363Y026238D01*
X007443Y026228D01*
X007523Y026214D01*
X007603Y026196D01*
X007681Y026175D01*
X007759Y026149D01*
X007835Y026120D01*
X007909Y026087D01*
X007982Y026051D01*
X008053Y026010D01*
X008121Y025967D01*
X008188Y025920D01*
X008252Y025870D01*
X008314Y025817D01*
X008373Y025761D01*
X008429Y025702D01*
X008482Y025641D01*
X008533Y025577D01*
X008580Y025510D01*
X008623Y025441D01*
X008663Y025371D01*
X008700Y025298D01*
X008700Y001098D01*
X008663Y001025D01*
X008623Y000955D01*
X008580Y000886D01*
X008533Y000819D01*
X008482Y000755D01*
X008429Y000694D01*
X008373Y000635D01*
X008314Y000579D01*
X008252Y000526D01*
X008188Y000476D01*
X008121Y000429D01*
X008053Y000386D01*
X007982Y000345D01*
X007909Y000309D01*
X007835Y000276D01*
X007759Y000247D01*
X007681Y000221D01*
X007603Y000200D01*
X007523Y000182D01*
X007443Y000168D01*
X007363Y000158D01*
X007281Y000152D01*
X007200Y000150D01*
X007119Y000152D01*
X007037Y000158D01*
X006957Y000168D01*
X006877Y000182D01*
X006797Y000200D01*
X006719Y000221D01*
X006641Y000247D01*
X006565Y000276D01*
X006491Y000309D01*
X006418Y000345D01*
X006347Y000386D01*
X006279Y000429D01*
X006212Y000476D01*
X006148Y000526D01*
X006086Y000579D01*
X006027Y000635D01*
X005971Y000694D01*
X005918Y000755D01*
X005867Y000819D01*
X005820Y000886D01*
X005777Y000955D01*
X005737Y001025D01*
X005700Y001098D01*
X002300Y001098D01*
D11*
X004713Y008247D03*
X005894Y010098D03*
X003531Y010098D03*
D12*
X006997Y003598D03*
X007997Y003598D03*
X007997Y002598D03*
X006997Y002598D03*
X005100Y002498D03*
X004100Y002498D03*
X003100Y002498D03*
X003200Y019698D03*
X003200Y020698D03*
X003200Y021698D03*
X003100Y024498D03*
X004100Y024498D03*
X005100Y024498D03*
X006997Y023810D03*
X006997Y022810D03*
X007997Y022810D03*
X007997Y023810D03*
X007997Y021094D03*
X007997Y020094D03*
X006997Y020094D03*
X006997Y021094D03*
D13*
X003755Y006282D02*
X003045Y006282D01*
X003045Y004314D02*
X003755Y004314D01*
D14*
X004024Y004742D02*
X005006Y004742D01*
X004908Y004644D02*
X004139Y004644D01*
X004140Y004643D02*
X004084Y004699D01*
X004020Y004746D01*
X003949Y004782D01*
X003873Y004806D01*
X003795Y004819D01*
X003450Y004819D01*
X003450Y004364D01*
X003350Y004364D01*
X003350Y004819D01*
X003005Y004819D01*
X002927Y004806D01*
X002851Y004782D01*
X002780Y004746D01*
X002716Y004699D01*
X002660Y004643D01*
X002613Y004578D01*
X002577Y004507D01*
X002552Y004432D01*
X002542Y004364D01*
X003350Y004364D01*
X003350Y004264D01*
X002542Y004264D01*
X002552Y004195D01*
X002577Y004120D01*
X002613Y004049D01*
X002660Y003985D01*
X002716Y003928D01*
X002780Y003882D01*
X002851Y003846D01*
X002927Y003821D01*
X003005Y003809D01*
X003350Y003809D01*
X003350Y004264D01*
X003450Y004264D01*
X003450Y004364D01*
X004258Y004364D01*
X004248Y004432D01*
X004223Y004507D01*
X004187Y004578D01*
X004140Y004643D01*
X004204Y004545D02*
X004809Y004545D01*
X004711Y004447D02*
X004243Y004447D01*
X004258Y004264D02*
X003450Y004264D01*
X003450Y003809D01*
X003795Y003809D01*
X003873Y003821D01*
X003949Y003846D01*
X004020Y003882D01*
X004084Y003928D01*
X004140Y003985D01*
X004187Y004049D01*
X004223Y004120D01*
X004248Y004195D01*
X004258Y004264D01*
X004256Y004250D02*
X004514Y004250D01*
X004612Y004348D02*
X003450Y004348D01*
X003450Y004250D02*
X003350Y004250D01*
X003350Y004348D02*
X002470Y004348D01*
X002470Y004250D02*
X002544Y004250D01*
X002567Y004151D02*
X002470Y004151D01*
X002470Y004053D02*
X002611Y004053D01*
X002690Y003954D02*
X002470Y003954D01*
X002470Y003856D02*
X002831Y003856D01*
X002470Y003560D02*
X003224Y003560D01*
X003224Y003561D02*
X003137Y003473D01*
X002837Y003173D01*
X002790Y003060D01*
X002790Y002923D01*
X002659Y002792D01*
X002580Y002601D01*
X002580Y002394D01*
X002659Y002203D01*
X002805Y002057D01*
X002997Y001978D01*
X003203Y001978D01*
X003395Y002057D01*
X003541Y002203D01*
X003600Y002346D01*
X003659Y002203D01*
X003790Y002072D01*
X003790Y001836D01*
X003837Y001722D01*
X003924Y001635D01*
X004224Y001335D01*
X004338Y001288D01*
X005862Y001288D01*
X005976Y001335D01*
X006063Y001422D01*
X006363Y001722D01*
X006410Y001836D01*
X006410Y001960D01*
X006410Y003069D01*
X006600Y003259D01*
X006702Y003157D01*
X006849Y003096D01*
X006797Y003080D01*
X006724Y003043D01*
X006658Y002994D01*
X006600Y002937D01*
X006552Y002870D01*
X006515Y002797D01*
X006490Y002720D01*
X006478Y002648D01*
X006947Y002648D01*
X006947Y002548D01*
X007047Y002548D01*
X007047Y002648D01*
X007478Y002648D01*
X007947Y002648D01*
X007947Y002548D01*
X008047Y002548D01*
X008047Y002648D01*
X008515Y002648D01*
X008504Y002720D01*
X008479Y002797D01*
X008442Y002870D01*
X008393Y002937D01*
X008336Y002994D01*
X008269Y003043D01*
X008196Y003080D01*
X008145Y003096D01*
X008291Y003157D01*
X008438Y003303D01*
X008517Y003494D01*
X008517Y003701D01*
X008438Y003892D01*
X008291Y004039D01*
X008100Y004118D01*
X007893Y004118D01*
X007702Y004039D01*
X007571Y003908D01*
X007422Y003908D01*
X007291Y004039D01*
X007100Y004118D01*
X006893Y004118D01*
X006702Y004039D01*
X006571Y003908D01*
X006438Y003908D01*
X006324Y003861D01*
X006237Y003773D01*
X005837Y003373D01*
X005790Y003260D01*
X005790Y002026D01*
X005672Y001908D01*
X004528Y001908D01*
X004410Y002026D01*
X004410Y002072D01*
X004541Y002203D01*
X004600Y002346D01*
X004659Y002203D01*
X004805Y002057D01*
X004997Y001978D01*
X005203Y001978D01*
X005395Y002057D01*
X005541Y002203D01*
X005620Y002394D01*
X005620Y002601D01*
X005541Y002792D01*
X005395Y002939D01*
X005203Y003018D01*
X004997Y003018D01*
X004805Y002939D01*
X004659Y002792D01*
X004600Y002650D01*
X004541Y002792D01*
X004395Y002939D01*
X004203Y003018D01*
X004134Y003018D01*
X004176Y003035D01*
X006476Y005335D01*
X006563Y005422D01*
X006580Y005464D01*
X006580Y005207D01*
X006709Y005078D01*
X008391Y005078D01*
X008520Y005207D01*
X008520Y007289D01*
X008470Y007339D01*
X008470Y018052D01*
X008429Y018151D01*
X007829Y018751D01*
X007753Y018827D01*
X007654Y018868D01*
X006912Y018868D01*
X005370Y020410D01*
X005370Y024047D01*
X005395Y024057D01*
X005541Y024203D01*
X005620Y024394D01*
X005620Y024601D01*
X005541Y024792D01*
X005395Y024939D01*
X005203Y025018D01*
X004997Y025018D01*
X004805Y024939D01*
X004659Y024792D01*
X004600Y024650D01*
X004541Y024792D01*
X004395Y024939D01*
X004203Y025018D01*
X003997Y025018D01*
X003805Y024939D01*
X003659Y024792D01*
X003600Y024650D01*
X003541Y024792D01*
X003395Y024939D01*
X003203Y025018D01*
X002997Y025018D01*
X002805Y024939D01*
X002659Y024792D01*
X002580Y024601D01*
X002580Y024394D01*
X002659Y024203D01*
X002805Y024057D01*
X002997Y023978D01*
X003203Y023978D01*
X003395Y024057D01*
X003541Y024203D01*
X003600Y024346D01*
X003659Y024203D01*
X003805Y024057D01*
X003997Y023978D01*
X004203Y023978D01*
X004395Y024057D01*
X004541Y024203D01*
X004600Y024346D01*
X004659Y024203D01*
X004805Y024057D01*
X004830Y024047D01*
X004830Y020244D01*
X004871Y020145D01*
X004947Y020069D01*
X006647Y018369D01*
X006746Y018328D01*
X007488Y018328D01*
X007930Y017886D01*
X007930Y007418D01*
X007258Y007418D01*
X007476Y007635D01*
X007563Y007722D01*
X007610Y007836D01*
X007610Y012678D01*
X007691Y012678D01*
X007820Y012807D01*
X007820Y017589D01*
X007691Y017718D01*
X003309Y017718D01*
X003180Y017589D01*
X003180Y012807D01*
X003309Y012678D01*
X006990Y012678D01*
X006990Y008026D01*
X006037Y007073D01*
X005990Y006960D01*
X005990Y005726D01*
X003872Y003608D01*
X003338Y003608D01*
X003224Y003561D01*
X003137Y003473D02*
X003137Y003473D01*
X003126Y003462D02*
X002470Y003462D01*
X002470Y003363D02*
X003027Y003363D01*
X002929Y003265D02*
X002470Y003265D01*
X002470Y003166D02*
X002834Y003166D01*
X002793Y003068D02*
X002470Y003068D01*
X002470Y002969D02*
X002790Y002969D01*
X002738Y002871D02*
X002470Y002871D01*
X002470Y002772D02*
X002651Y002772D01*
X002610Y002674D02*
X002470Y002674D01*
X002470Y002575D02*
X002580Y002575D01*
X002580Y002477D02*
X002470Y002477D01*
X002470Y002378D02*
X002587Y002378D01*
X002627Y002280D02*
X002470Y002280D01*
X002470Y002181D02*
X002681Y002181D01*
X002780Y002083D02*
X002470Y002083D01*
X002470Y001984D02*
X002981Y001984D01*
X003219Y001984D02*
X003790Y001984D01*
X003790Y001886D02*
X002470Y001886D01*
X002470Y001787D02*
X003810Y001787D01*
X003871Y001689D02*
X002470Y001689D01*
X002470Y001590D02*
X003969Y001590D01*
X004068Y001492D02*
X002470Y001492D01*
X002470Y001393D02*
X004166Y001393D01*
X004321Y001295D02*
X002470Y001295D01*
X002470Y001268D02*
X002470Y025128D01*
X005662Y025128D01*
X005691Y025114D01*
X005729Y025128D01*
X005770Y025128D01*
X005793Y025151D01*
X005823Y025161D01*
X005841Y025198D01*
X005870Y025227D01*
X005870Y025254D01*
X005957Y025408D01*
X006235Y025721D01*
X006588Y025944D01*
X006991Y026061D01*
X007409Y026061D01*
X007812Y025944D01*
X008165Y025721D01*
X008443Y025408D01*
X008530Y025254D01*
X008530Y001142D01*
X008443Y000988D01*
X008165Y000675D01*
X007812Y000451D01*
X007409Y000335D01*
X006991Y000335D01*
X006588Y000451D01*
X006235Y000675D01*
X005957Y000988D01*
X005870Y001142D01*
X005870Y001168D01*
X005841Y001197D01*
X005823Y001234D01*
X005793Y001245D01*
X005770Y001268D01*
X005729Y001268D01*
X005691Y001282D01*
X005662Y001268D01*
X002470Y001268D01*
X003420Y002083D02*
X003780Y002083D01*
X003681Y002181D02*
X003519Y002181D01*
X003573Y002280D02*
X003627Y002280D01*
X004321Y002969D02*
X004879Y002969D01*
X004738Y002871D02*
X004462Y002871D01*
X004549Y002772D02*
X004651Y002772D01*
X004610Y002674D02*
X004590Y002674D01*
X004573Y002280D02*
X004627Y002280D01*
X004681Y002181D02*
X004519Y002181D01*
X004420Y002083D02*
X004780Y002083D01*
X004981Y001984D02*
X004452Y001984D01*
X005219Y001984D02*
X005748Y001984D01*
X005790Y002083D02*
X005420Y002083D01*
X005519Y002181D02*
X005790Y002181D01*
X005790Y002280D02*
X005573Y002280D01*
X005613Y002378D02*
X005790Y002378D01*
X005790Y002477D02*
X005620Y002477D01*
X005620Y002575D02*
X005790Y002575D01*
X005790Y002674D02*
X005590Y002674D01*
X005549Y002772D02*
X005790Y002772D01*
X005790Y002871D02*
X005462Y002871D01*
X005321Y002969D02*
X005790Y002969D01*
X005790Y003068D02*
X004208Y003068D01*
X004307Y003166D02*
X005790Y003166D01*
X005792Y003265D02*
X004405Y003265D01*
X004504Y003363D02*
X005833Y003363D01*
X005926Y003462D02*
X004602Y003462D01*
X004701Y003560D02*
X006024Y003560D01*
X006123Y003659D02*
X004799Y003659D01*
X004898Y003757D02*
X006221Y003757D01*
X006320Y003856D02*
X004996Y003856D01*
X005095Y003954D02*
X006618Y003954D01*
X006737Y004053D02*
X005193Y004053D01*
X005292Y004151D02*
X008530Y004151D01*
X008530Y004053D02*
X008257Y004053D01*
X008376Y003954D02*
X008530Y003954D01*
X008530Y003856D02*
X008453Y003856D01*
X008494Y003757D02*
X008530Y003757D01*
X008517Y003659D02*
X008530Y003659D01*
X008517Y003560D02*
X008530Y003560D01*
X008530Y003462D02*
X008503Y003462D01*
X008530Y003363D02*
X008463Y003363D01*
X008399Y003265D02*
X008530Y003265D01*
X008530Y003166D02*
X008301Y003166D01*
X008220Y003068D02*
X008530Y003068D01*
X008530Y002969D02*
X008361Y002969D01*
X008441Y002871D02*
X008530Y002871D01*
X008530Y002772D02*
X008487Y002772D01*
X008511Y002674D02*
X008530Y002674D01*
X008530Y002575D02*
X008047Y002575D01*
X008047Y002548D02*
X008515Y002548D01*
X008504Y002476D01*
X008479Y002398D01*
X008442Y002325D01*
X008393Y002259D01*
X008336Y002201D01*
X008269Y002153D01*
X008196Y002116D01*
X008119Y002091D01*
X008047Y002079D01*
X008047Y002548D01*
X008047Y002477D02*
X007947Y002477D01*
X007947Y002548D02*
X007947Y002079D01*
X007875Y002091D01*
X007797Y002116D01*
X007724Y002153D01*
X007658Y002201D01*
X007600Y002259D01*
X007552Y002325D01*
X007515Y002398D01*
X007497Y002454D01*
X007479Y002398D01*
X007442Y002325D01*
X007393Y002259D01*
X007336Y002201D01*
X007269Y002153D01*
X007196Y002116D01*
X007119Y002091D01*
X007047Y002079D01*
X007047Y002548D01*
X007947Y002548D01*
X007947Y002575D02*
X007047Y002575D01*
X007047Y002477D02*
X006947Y002477D01*
X006947Y002548D02*
X006947Y002079D01*
X006875Y002091D01*
X006797Y002116D01*
X006724Y002153D01*
X006658Y002201D01*
X006600Y002259D01*
X006552Y002325D01*
X006515Y002398D01*
X006490Y002476D01*
X006478Y002548D01*
X006947Y002548D01*
X006947Y002575D02*
X006410Y002575D01*
X006410Y002477D02*
X006490Y002477D01*
X006525Y002378D02*
X006410Y002378D01*
X006410Y002280D02*
X006585Y002280D01*
X006685Y002181D02*
X006410Y002181D01*
X006410Y002083D02*
X006924Y002083D01*
X006947Y002083D02*
X007047Y002083D01*
X007069Y002083D02*
X007924Y002083D01*
X007947Y002083D02*
X008047Y002083D01*
X008069Y002083D02*
X008530Y002083D01*
X008530Y002181D02*
X008308Y002181D01*
X008409Y002280D02*
X008530Y002280D01*
X008530Y002378D02*
X008469Y002378D01*
X008504Y002477D02*
X008530Y002477D01*
X008530Y001984D02*
X006410Y001984D01*
X006410Y001886D02*
X008530Y001886D01*
X008530Y001787D02*
X006390Y001787D01*
X006329Y001689D02*
X008530Y001689D01*
X008530Y001590D02*
X006231Y001590D01*
X006132Y001492D02*
X008530Y001492D01*
X008530Y001393D02*
X006034Y001393D01*
X005879Y001295D02*
X008530Y001295D01*
X008530Y001196D02*
X005842Y001196D01*
X005895Y001098D02*
X008505Y001098D01*
X008450Y000999D02*
X005950Y000999D01*
X006034Y000901D02*
X008366Y000901D01*
X008279Y000802D02*
X006121Y000802D01*
X006209Y000704D02*
X008191Y000704D01*
X008055Y000605D02*
X006345Y000605D01*
X006500Y000507D02*
X007900Y000507D01*
X007663Y000408D02*
X006737Y000408D01*
X006947Y002181D02*
X007047Y002181D01*
X007047Y002280D02*
X006947Y002280D01*
X006947Y002378D02*
X007047Y002378D01*
X007308Y002181D02*
X007685Y002181D01*
X007585Y002280D02*
X007409Y002280D01*
X007469Y002378D02*
X007525Y002378D01*
X007497Y002742D02*
X007479Y002797D01*
X007442Y002870D01*
X007393Y002937D01*
X007336Y002994D01*
X007269Y003043D01*
X007196Y003080D01*
X007145Y003096D01*
X007291Y003157D01*
X007422Y003288D01*
X007571Y003288D01*
X007702Y003157D01*
X007849Y003096D01*
X007797Y003080D01*
X007724Y003043D01*
X007658Y002994D01*
X007600Y002937D01*
X007552Y002870D01*
X007515Y002797D01*
X007497Y002742D01*
X007487Y002772D02*
X007507Y002772D01*
X007552Y002871D02*
X007441Y002871D01*
X007361Y002969D02*
X007633Y002969D01*
X007774Y003068D02*
X007220Y003068D01*
X007301Y003166D02*
X007693Y003166D01*
X007594Y003265D02*
X007399Y003265D01*
X006774Y003068D02*
X006410Y003068D01*
X006410Y002969D02*
X006633Y002969D01*
X006552Y002871D02*
X006410Y002871D01*
X006410Y002772D02*
X006507Y002772D01*
X006482Y002674D02*
X006410Y002674D01*
X006507Y003166D02*
X006693Y003166D01*
X007376Y003954D02*
X007618Y003954D01*
X007737Y004053D02*
X007257Y004053D01*
X006650Y005136D02*
X006277Y005136D01*
X006178Y005038D02*
X008530Y005038D01*
X008530Y005136D02*
X008450Y005136D01*
X008520Y005235D02*
X008530Y005235D01*
X008520Y005333D02*
X008530Y005333D01*
X008520Y005432D02*
X008530Y005432D01*
X008520Y005530D02*
X008530Y005530D01*
X008520Y005629D02*
X008530Y005629D01*
X008520Y005727D02*
X008530Y005727D01*
X008520Y005826D02*
X008530Y005826D01*
X008520Y005924D02*
X008530Y005924D01*
X008520Y006023D02*
X008530Y006023D01*
X008520Y006121D02*
X008530Y006121D01*
X008520Y006220D02*
X008530Y006220D01*
X008520Y006318D02*
X008530Y006318D01*
X008520Y006417D02*
X008530Y006417D01*
X008520Y006515D02*
X008530Y006515D01*
X008520Y006614D02*
X008530Y006614D01*
X008520Y006712D02*
X008530Y006712D01*
X008520Y006811D02*
X008530Y006811D01*
X008520Y006909D02*
X008530Y006909D01*
X008520Y007008D02*
X008530Y007008D01*
X008520Y007106D02*
X008530Y007106D01*
X008520Y007205D02*
X008530Y007205D01*
X008530Y007303D02*
X008506Y007303D01*
X008530Y007402D02*
X008470Y007402D01*
X008470Y007500D02*
X008530Y007500D01*
X008530Y007599D02*
X008470Y007599D01*
X008470Y007697D02*
X008530Y007697D01*
X008530Y007796D02*
X008470Y007796D01*
X008470Y007894D02*
X008530Y007894D01*
X008530Y007993D02*
X008470Y007993D01*
X008470Y008091D02*
X008530Y008091D01*
X008530Y008190D02*
X008470Y008190D01*
X008470Y008288D02*
X008530Y008288D01*
X008530Y008387D02*
X008470Y008387D01*
X008470Y008485D02*
X008530Y008485D01*
X008530Y008584D02*
X008470Y008584D01*
X008470Y008682D02*
X008530Y008682D01*
X008530Y008781D02*
X008470Y008781D01*
X008470Y008879D02*
X008530Y008879D01*
X008530Y008978D02*
X008470Y008978D01*
X008470Y009076D02*
X008530Y009076D01*
X008530Y009175D02*
X008470Y009175D01*
X008470Y009273D02*
X008530Y009273D01*
X008530Y009372D02*
X008470Y009372D01*
X008470Y009470D02*
X008530Y009470D01*
X008530Y009569D02*
X008470Y009569D01*
X008470Y009667D02*
X008530Y009667D01*
X008530Y009766D02*
X008470Y009766D01*
X008470Y009864D02*
X008530Y009864D01*
X008530Y009963D02*
X008470Y009963D01*
X008470Y010061D02*
X008530Y010061D01*
X008530Y010160D02*
X008470Y010160D01*
X008470Y010258D02*
X008530Y010258D01*
X008530Y010357D02*
X008470Y010357D01*
X008470Y010455D02*
X008530Y010455D01*
X008530Y010554D02*
X008470Y010554D01*
X008470Y010652D02*
X008530Y010652D01*
X008530Y010751D02*
X008470Y010751D01*
X008470Y010849D02*
X008530Y010849D01*
X008530Y010948D02*
X008470Y010948D01*
X008470Y011046D02*
X008530Y011046D01*
X008530Y011145D02*
X008470Y011145D01*
X008470Y011243D02*
X008530Y011243D01*
X008530Y011342D02*
X008470Y011342D01*
X008470Y011440D02*
X008530Y011440D01*
X008530Y011539D02*
X008470Y011539D01*
X008470Y011637D02*
X008530Y011637D01*
X008530Y011736D02*
X008470Y011736D01*
X008470Y011834D02*
X008530Y011834D01*
X008530Y011933D02*
X008470Y011933D01*
X008470Y012031D02*
X008530Y012031D01*
X008530Y012130D02*
X008470Y012130D01*
X008470Y012228D02*
X008530Y012228D01*
X008530Y012327D02*
X008470Y012327D01*
X008470Y012425D02*
X008530Y012425D01*
X008530Y012524D02*
X008470Y012524D01*
X008470Y012622D02*
X008530Y012622D01*
X008530Y012721D02*
X008470Y012721D01*
X008470Y012819D02*
X008530Y012819D01*
X008530Y012918D02*
X008470Y012918D01*
X008470Y013016D02*
X008530Y013016D01*
X008530Y013115D02*
X008470Y013115D01*
X008470Y013213D02*
X008530Y013213D01*
X008530Y013312D02*
X008470Y013312D01*
X008470Y013410D02*
X008530Y013410D01*
X008530Y013509D02*
X008470Y013509D01*
X008470Y013607D02*
X008530Y013607D01*
X008530Y013706D02*
X008470Y013706D01*
X008470Y013804D02*
X008530Y013804D01*
X008530Y013903D02*
X008470Y013903D01*
X008470Y014001D02*
X008530Y014001D01*
X008530Y014100D02*
X008470Y014100D01*
X008470Y014198D02*
X008530Y014198D01*
X008530Y014297D02*
X008470Y014297D01*
X008470Y014395D02*
X008530Y014395D01*
X008530Y014494D02*
X008470Y014494D01*
X008470Y014592D02*
X008530Y014592D01*
X008530Y014691D02*
X008470Y014691D01*
X008470Y014789D02*
X008530Y014789D01*
X008530Y014888D02*
X008470Y014888D01*
X008470Y014986D02*
X008530Y014986D01*
X008530Y015085D02*
X008470Y015085D01*
X008470Y015183D02*
X008530Y015183D01*
X008530Y015282D02*
X008470Y015282D01*
X008470Y015380D02*
X008530Y015380D01*
X008530Y015479D02*
X008470Y015479D01*
X008470Y015577D02*
X008530Y015577D01*
X008530Y015676D02*
X008470Y015676D01*
X008470Y015774D02*
X008530Y015774D01*
X008530Y015873D02*
X008470Y015873D01*
X008470Y015971D02*
X008530Y015971D01*
X008530Y016070D02*
X008470Y016070D01*
X008470Y016168D02*
X008530Y016168D01*
X008530Y016267D02*
X008470Y016267D01*
X008470Y016365D02*
X008530Y016365D01*
X008530Y016464D02*
X008470Y016464D01*
X008470Y016562D02*
X008530Y016562D01*
X008530Y016661D02*
X008470Y016661D01*
X008470Y016759D02*
X008530Y016759D01*
X008530Y016858D02*
X008470Y016858D01*
X008470Y016956D02*
X008530Y016956D01*
X008530Y017055D02*
X008470Y017055D01*
X008470Y017153D02*
X008530Y017153D01*
X008530Y017252D02*
X008470Y017252D01*
X008470Y017350D02*
X008530Y017350D01*
X008530Y017449D02*
X008470Y017449D01*
X008470Y017547D02*
X008530Y017547D01*
X008530Y017646D02*
X008470Y017646D01*
X008470Y017744D02*
X008530Y017744D01*
X008530Y017843D02*
X008470Y017843D01*
X008470Y017941D02*
X008530Y017941D01*
X008530Y018040D02*
X008470Y018040D01*
X008434Y018138D02*
X008530Y018138D01*
X008530Y018237D02*
X008343Y018237D01*
X008244Y018335D02*
X008530Y018335D01*
X008530Y018434D02*
X008146Y018434D01*
X008047Y018532D02*
X008530Y018532D01*
X008530Y018631D02*
X007949Y018631D01*
X007850Y018729D02*
X008530Y018729D01*
X008530Y018828D02*
X007750Y018828D01*
X007875Y019587D02*
X007947Y019575D01*
X007947Y020044D01*
X008047Y020044D01*
X008047Y020144D01*
X008515Y020144D01*
X008504Y020216D01*
X008479Y020294D01*
X008442Y020366D01*
X008393Y020433D01*
X008336Y020491D01*
X008269Y020539D01*
X008196Y020576D01*
X008145Y020592D01*
X008291Y020653D01*
X008438Y020799D01*
X008517Y020990D01*
X008517Y021197D01*
X008438Y021388D01*
X008291Y021535D01*
X008100Y021614D01*
X007893Y021614D01*
X007702Y021535D01*
X007571Y021404D01*
X007422Y021404D01*
X007291Y021535D01*
X007100Y021614D01*
X006893Y021614D01*
X006702Y021535D01*
X006556Y021388D01*
X006477Y021197D01*
X006477Y020990D01*
X006556Y020799D01*
X006702Y020653D01*
X006849Y020592D01*
X006797Y020576D01*
X006724Y020539D01*
X006658Y020491D01*
X006600Y020433D01*
X006552Y020366D01*
X006515Y020294D01*
X006490Y020216D01*
X006478Y020144D01*
X006947Y020144D01*
X006947Y020044D01*
X007047Y020044D01*
X007047Y020144D01*
X007478Y020144D01*
X007947Y020144D01*
X007947Y020044D01*
X007047Y020044D01*
X007047Y019575D01*
X007119Y019587D01*
X007196Y019612D01*
X007269Y019649D01*
X007336Y019697D01*
X007393Y019755D01*
X007442Y019821D01*
X007479Y019894D01*
X007497Y019950D01*
X007515Y019894D01*
X007552Y019821D01*
X007600Y019755D01*
X007658Y019697D01*
X007724Y019649D01*
X007797Y019612D01*
X007875Y019587D01*
X007947Y019616D02*
X008047Y019616D01*
X008047Y019575D02*
X008119Y019587D01*
X008196Y019612D01*
X008269Y019649D01*
X008336Y019697D01*
X008393Y019755D01*
X008442Y019821D01*
X008479Y019894D01*
X008504Y019972D01*
X008515Y020044D01*
X008047Y020044D01*
X008047Y019575D01*
X008047Y019714D02*
X007947Y019714D01*
X007947Y019813D02*
X008047Y019813D01*
X008047Y019911D02*
X007947Y019911D01*
X007947Y020010D02*
X008047Y020010D01*
X008047Y020108D02*
X008530Y020108D01*
X008530Y020010D02*
X008510Y020010D01*
X008530Y019911D02*
X008484Y019911D01*
X008530Y019813D02*
X008435Y019813D01*
X008353Y019714D02*
X008530Y019714D01*
X008530Y019616D02*
X008204Y019616D01*
X008530Y019517D02*
X006262Y019517D01*
X006361Y019419D02*
X008530Y019419D01*
X008530Y019320D02*
X006459Y019320D01*
X006558Y019222D02*
X008530Y019222D01*
X008530Y019123D02*
X006656Y019123D01*
X006755Y019025D02*
X008530Y019025D01*
X008530Y018926D02*
X006853Y018926D01*
X006484Y018532D02*
X003110Y018532D01*
X003110Y018434D02*
X006582Y018434D01*
X006728Y018335D02*
X003110Y018335D01*
X003110Y018237D02*
X007579Y018237D01*
X007678Y018138D02*
X003110Y018138D01*
X003110Y018040D02*
X007776Y018040D01*
X007875Y017941D02*
X003110Y017941D01*
X003110Y017843D02*
X007930Y017843D01*
X007930Y017744D02*
X003110Y017744D01*
X003110Y017646D02*
X003237Y017646D01*
X003180Y017547D02*
X003110Y017547D01*
X003110Y017449D02*
X003180Y017449D01*
X003180Y017350D02*
X003110Y017350D01*
X003110Y017252D02*
X003180Y017252D01*
X003180Y017153D02*
X003110Y017153D01*
X003110Y017055D02*
X003180Y017055D01*
X003180Y016956D02*
X003110Y016956D01*
X003110Y016858D02*
X003180Y016858D01*
X003180Y016759D02*
X003110Y016759D01*
X003110Y016661D02*
X003180Y016661D01*
X003180Y016562D02*
X003110Y016562D01*
X003110Y016464D02*
X003180Y016464D01*
X003180Y016365D02*
X003110Y016365D01*
X003110Y016267D02*
X003180Y016267D01*
X003180Y016168D02*
X003110Y016168D01*
X003110Y016070D02*
X003180Y016070D01*
X003180Y015971D02*
X003110Y015971D01*
X003110Y015873D02*
X003180Y015873D01*
X003180Y015774D02*
X003110Y015774D01*
X003110Y015676D02*
X003180Y015676D01*
X003180Y015577D02*
X003110Y015577D01*
X003110Y015479D02*
X003180Y015479D01*
X003180Y015380D02*
X003110Y015380D01*
X003110Y015282D02*
X003180Y015282D01*
X003180Y015183D02*
X003110Y015183D01*
X003110Y015085D02*
X003180Y015085D01*
X003180Y014986D02*
X003110Y014986D01*
X003110Y014888D02*
X003180Y014888D01*
X003180Y014789D02*
X003110Y014789D01*
X003110Y014691D02*
X003180Y014691D01*
X003180Y014592D02*
X003110Y014592D01*
X003110Y014494D02*
X003180Y014494D01*
X003180Y014395D02*
X003110Y014395D01*
X003110Y014297D02*
X003180Y014297D01*
X003180Y014198D02*
X003110Y014198D01*
X003110Y014100D02*
X003180Y014100D01*
X003180Y014001D02*
X003110Y014001D01*
X003110Y013903D02*
X003180Y013903D01*
X003180Y013804D02*
X003110Y013804D01*
X003110Y013706D02*
X003180Y013706D01*
X003180Y013607D02*
X003110Y013607D01*
X003110Y013509D02*
X003180Y013509D01*
X003180Y013410D02*
X003110Y013410D01*
X003110Y013312D02*
X003180Y013312D01*
X003180Y013213D02*
X003110Y013213D01*
X003110Y013115D02*
X003180Y013115D01*
X003180Y013016D02*
X003110Y013016D01*
X003110Y012918D02*
X003180Y012918D01*
X003180Y012819D02*
X003110Y012819D01*
X003110Y012721D02*
X003266Y012721D01*
X003110Y012622D02*
X006990Y012622D01*
X006990Y012524D02*
X003110Y012524D01*
X003110Y012425D02*
X006990Y012425D01*
X006990Y012327D02*
X003110Y012327D01*
X003110Y012228D02*
X006990Y012228D01*
X006990Y012130D02*
X003110Y012130D01*
X003110Y012126D02*
X003110Y019169D01*
X003118Y019178D01*
X003303Y019178D01*
X003495Y019257D01*
X003641Y019403D01*
X003720Y019594D01*
X003720Y019801D01*
X003641Y019992D01*
X003495Y020139D01*
X003352Y020198D01*
X003495Y020257D01*
X003641Y020403D01*
X003720Y020594D01*
X003720Y020801D01*
X003641Y020992D01*
X003495Y021139D01*
X003352Y021198D01*
X003495Y021257D01*
X003641Y021403D01*
X003720Y021594D01*
X003720Y021801D01*
X003641Y021992D01*
X003495Y022139D01*
X003303Y022218D01*
X003097Y022218D01*
X002905Y022139D01*
X002759Y021992D01*
X002680Y021801D01*
X002680Y021594D01*
X002759Y021403D01*
X002905Y021257D01*
X003048Y021198D01*
X002905Y021139D01*
X002759Y020992D01*
X002680Y020801D01*
X002680Y020594D01*
X002759Y020403D01*
X002905Y020257D01*
X003048Y020198D01*
X002905Y020139D01*
X002759Y019992D01*
X002680Y019801D01*
X002680Y019616D01*
X002624Y019561D01*
X002537Y019473D01*
X002490Y019360D01*
X002490Y011936D01*
X002537Y011822D01*
X002937Y011422D01*
X003024Y011335D01*
X003138Y011288D01*
X004265Y011288D01*
X005000Y010553D01*
X004894Y010297D01*
X004894Y009899D01*
X005046Y009531D01*
X005327Y009250D01*
X005590Y009141D01*
X005590Y008730D01*
X005589Y008732D01*
X005529Y008827D01*
X005459Y008915D01*
X005380Y008994D01*
X005292Y009064D01*
X005197Y009124D01*
X005096Y009173D01*
X004990Y009210D01*
X004880Y009235D01*
X004769Y009247D01*
X004763Y009247D01*
X004763Y008297D01*
X004663Y008297D01*
X004663Y008197D01*
X004763Y008197D01*
X004763Y007247D01*
X004769Y007247D01*
X004880Y007260D01*
X004990Y007285D01*
X005096Y007322D01*
X005197Y007371D01*
X005292Y007431D01*
X005380Y007501D01*
X005459Y007580D01*
X005529Y007668D01*
X005589Y007763D01*
X005590Y007765D01*
X005590Y007526D01*
X004656Y006592D01*
X004159Y006592D01*
X004041Y006710D01*
X003855Y006787D01*
X002945Y006787D01*
X002759Y006710D01*
X002617Y006568D01*
X002540Y006383D01*
X002540Y006182D01*
X002617Y005996D01*
X002759Y005854D01*
X002945Y005777D01*
X003855Y005777D01*
X004041Y005854D01*
X004159Y005972D01*
X004846Y005972D01*
X004960Y006019D01*
X005047Y006106D01*
X005047Y006106D01*
X006076Y007135D01*
X006163Y007222D01*
X006210Y007336D01*
X006210Y009146D01*
X006460Y009250D01*
X006741Y009531D01*
X006894Y009899D01*
X006894Y010297D01*
X006741Y010664D01*
X006460Y010946D01*
X006093Y011098D01*
X005695Y011098D01*
X005438Y010992D01*
X004569Y011861D01*
X004455Y011908D01*
X003328Y011908D01*
X003110Y012126D01*
X003205Y012031D02*
X006990Y012031D01*
X006990Y011933D02*
X003303Y011933D01*
X002821Y011539D02*
X002470Y011539D01*
X002470Y011637D02*
X002722Y011637D01*
X002624Y011736D02*
X002470Y011736D01*
X002470Y011834D02*
X002532Y011834D01*
X002491Y011933D02*
X002470Y011933D01*
X002470Y012031D02*
X002490Y012031D01*
X002490Y012130D02*
X002470Y012130D01*
X002470Y012228D02*
X002490Y012228D01*
X002490Y012327D02*
X002470Y012327D01*
X002470Y012425D02*
X002490Y012425D01*
X002490Y012524D02*
X002470Y012524D01*
X002470Y012622D02*
X002490Y012622D01*
X002490Y012721D02*
X002470Y012721D01*
X002470Y012819D02*
X002490Y012819D01*
X002490Y012918D02*
X002470Y012918D01*
X002470Y013016D02*
X002490Y013016D01*
X002490Y013115D02*
X002470Y013115D01*
X002470Y013213D02*
X002490Y013213D01*
X002490Y013312D02*
X002470Y013312D01*
X002470Y013410D02*
X002490Y013410D01*
X002490Y013509D02*
X002470Y013509D01*
X002470Y013607D02*
X002490Y013607D01*
X002490Y013706D02*
X002470Y013706D01*
X002470Y013804D02*
X002490Y013804D01*
X002490Y013903D02*
X002470Y013903D01*
X002470Y014001D02*
X002490Y014001D01*
X002490Y014100D02*
X002470Y014100D01*
X002470Y014198D02*
X002490Y014198D01*
X002490Y014297D02*
X002470Y014297D01*
X002470Y014395D02*
X002490Y014395D01*
X002490Y014494D02*
X002470Y014494D01*
X002470Y014592D02*
X002490Y014592D01*
X002490Y014691D02*
X002470Y014691D01*
X002470Y014789D02*
X002490Y014789D01*
X002490Y014888D02*
X002470Y014888D01*
X002470Y014986D02*
X002490Y014986D01*
X002490Y015085D02*
X002470Y015085D01*
X002470Y015183D02*
X002490Y015183D01*
X002490Y015282D02*
X002470Y015282D01*
X002470Y015380D02*
X002490Y015380D01*
X002490Y015479D02*
X002470Y015479D01*
X002470Y015577D02*
X002490Y015577D01*
X002490Y015676D02*
X002470Y015676D01*
X002470Y015774D02*
X002490Y015774D01*
X002490Y015873D02*
X002470Y015873D01*
X002470Y015971D02*
X002490Y015971D01*
X002490Y016070D02*
X002470Y016070D01*
X002470Y016168D02*
X002490Y016168D01*
X002490Y016267D02*
X002470Y016267D01*
X002470Y016365D02*
X002490Y016365D01*
X002490Y016464D02*
X002470Y016464D01*
X002470Y016562D02*
X002490Y016562D01*
X002490Y016661D02*
X002470Y016661D01*
X002470Y016759D02*
X002490Y016759D01*
X002490Y016858D02*
X002470Y016858D01*
X002470Y016956D02*
X002490Y016956D01*
X002490Y017055D02*
X002470Y017055D01*
X002470Y017153D02*
X002490Y017153D01*
X002490Y017252D02*
X002470Y017252D01*
X002470Y017350D02*
X002490Y017350D01*
X002490Y017449D02*
X002470Y017449D01*
X002470Y017547D02*
X002490Y017547D01*
X002490Y017646D02*
X002470Y017646D01*
X002470Y017744D02*
X002490Y017744D01*
X002490Y017843D02*
X002470Y017843D01*
X002470Y017941D02*
X002490Y017941D01*
X002490Y018040D02*
X002470Y018040D01*
X002470Y018138D02*
X002490Y018138D01*
X002490Y018237D02*
X002470Y018237D01*
X002470Y018335D02*
X002490Y018335D01*
X002490Y018434D02*
X002470Y018434D01*
X002470Y018532D02*
X002490Y018532D01*
X002490Y018631D02*
X002470Y018631D01*
X002470Y018729D02*
X002490Y018729D01*
X002490Y018828D02*
X002470Y018828D01*
X002470Y018926D02*
X002490Y018926D01*
X002490Y019025D02*
X002470Y019025D01*
X002470Y019123D02*
X002490Y019123D01*
X002490Y019222D02*
X002470Y019222D01*
X002470Y019320D02*
X002490Y019320D01*
X002470Y019419D02*
X002515Y019419D01*
X002470Y019517D02*
X002581Y019517D01*
X002624Y019561D02*
X002624Y019561D01*
X002680Y019616D02*
X002470Y019616D01*
X002470Y019714D02*
X002680Y019714D01*
X002685Y019813D02*
X002470Y019813D01*
X002470Y019911D02*
X002726Y019911D01*
X002777Y020010D02*
X002470Y020010D01*
X002470Y020108D02*
X002875Y020108D01*
X003026Y020207D02*
X002470Y020207D01*
X002470Y020305D02*
X002857Y020305D01*
X002759Y020404D02*
X002470Y020404D01*
X002470Y020502D02*
X002718Y020502D01*
X002680Y020601D02*
X002470Y020601D01*
X002470Y020699D02*
X002680Y020699D01*
X002680Y020798D02*
X002470Y020798D01*
X002470Y020896D02*
X002719Y020896D01*
X002762Y020995D02*
X002470Y020995D01*
X002470Y021093D02*
X002860Y021093D01*
X002872Y021290D02*
X002470Y021290D01*
X002470Y021192D02*
X003034Y021192D01*
X003366Y021192D02*
X004830Y021192D01*
X004830Y021290D02*
X003528Y021290D01*
X003626Y021389D02*
X004830Y021389D01*
X004830Y021487D02*
X003676Y021487D01*
X003716Y021586D02*
X004830Y021586D01*
X004830Y021684D02*
X003720Y021684D01*
X003720Y021783D02*
X004830Y021783D01*
X004830Y021881D02*
X003687Y021881D01*
X003646Y021980D02*
X004830Y021980D01*
X004830Y022078D02*
X003555Y022078D01*
X003402Y022177D02*
X004830Y022177D01*
X004830Y022275D02*
X002470Y022275D01*
X002470Y022177D02*
X002998Y022177D01*
X002845Y022078D02*
X002470Y022078D01*
X002470Y021980D02*
X002754Y021980D01*
X002713Y021881D02*
X002470Y021881D01*
X002470Y021783D02*
X002680Y021783D01*
X002680Y021684D02*
X002470Y021684D01*
X002470Y021586D02*
X002684Y021586D01*
X002724Y021487D02*
X002470Y021487D01*
X002470Y021389D02*
X002774Y021389D01*
X003540Y021093D02*
X004830Y021093D01*
X004830Y020995D02*
X003638Y020995D01*
X003681Y020896D02*
X004830Y020896D01*
X004830Y020798D02*
X003720Y020798D01*
X003720Y020699D02*
X004830Y020699D01*
X004830Y020601D02*
X003720Y020601D01*
X003682Y020502D02*
X004830Y020502D01*
X004830Y020404D02*
X003641Y020404D01*
X003543Y020305D02*
X004830Y020305D01*
X004845Y020207D02*
X003374Y020207D01*
X003525Y020108D02*
X004908Y020108D01*
X005006Y020010D02*
X003623Y020010D01*
X003674Y019911D02*
X005105Y019911D01*
X005203Y019813D02*
X003715Y019813D01*
X003720Y019714D02*
X005302Y019714D01*
X005400Y019616D02*
X003720Y019616D01*
X003688Y019517D02*
X005499Y019517D01*
X005597Y019419D02*
X003647Y019419D01*
X003558Y019320D02*
X005696Y019320D01*
X005794Y019222D02*
X003410Y019222D01*
X003110Y019123D02*
X005893Y019123D01*
X005991Y019025D02*
X003110Y019025D01*
X003110Y018926D02*
X006090Y018926D01*
X006188Y018828D02*
X003110Y018828D01*
X003110Y018729D02*
X006287Y018729D01*
X006385Y018631D02*
X003110Y018631D01*
X003400Y017498D02*
X007600Y017498D01*
X007600Y012898D01*
X003400Y012898D01*
X003400Y017498D01*
X003400Y017449D02*
X007600Y017449D01*
X007600Y017350D02*
X003400Y017350D01*
X003400Y017252D02*
X007600Y017252D01*
X007600Y017153D02*
X003400Y017153D01*
X003400Y017055D02*
X007600Y017055D01*
X007600Y016956D02*
X003400Y016956D01*
X003400Y016858D02*
X007600Y016858D01*
X007600Y016759D02*
X003400Y016759D01*
X003400Y016661D02*
X007600Y016661D01*
X007600Y016562D02*
X003400Y016562D01*
X003400Y016464D02*
X007600Y016464D01*
X007600Y016365D02*
X003400Y016365D01*
X003400Y016267D02*
X007600Y016267D01*
X007600Y016168D02*
X003400Y016168D01*
X003400Y016070D02*
X007600Y016070D01*
X007600Y015971D02*
X003400Y015971D01*
X003400Y015873D02*
X007600Y015873D01*
X007600Y015774D02*
X003400Y015774D01*
X003400Y015676D02*
X007600Y015676D01*
X007600Y015577D02*
X003400Y015577D01*
X003400Y015479D02*
X007600Y015479D01*
X007600Y015380D02*
X003400Y015380D01*
X003400Y015282D02*
X007600Y015282D01*
X007600Y015183D02*
X003400Y015183D01*
X003400Y015085D02*
X007600Y015085D01*
X007600Y014986D02*
X003400Y014986D01*
X003400Y014888D02*
X007600Y014888D01*
X007600Y014789D02*
X003400Y014789D01*
X003400Y014691D02*
X007600Y014691D01*
X007600Y014592D02*
X003400Y014592D01*
X003400Y014494D02*
X007600Y014494D01*
X007600Y014395D02*
X003400Y014395D01*
X003400Y014297D02*
X007600Y014297D01*
X007600Y014198D02*
X003400Y014198D01*
X003400Y014100D02*
X007600Y014100D01*
X007600Y014001D02*
X003400Y014001D01*
X003400Y013903D02*
X007600Y013903D01*
X007600Y013804D02*
X003400Y013804D01*
X003400Y013706D02*
X007600Y013706D01*
X007600Y013607D02*
X003400Y013607D01*
X003400Y013509D02*
X007600Y013509D01*
X007600Y013410D02*
X003400Y013410D01*
X003400Y013312D02*
X007600Y013312D01*
X007600Y013213D02*
X003400Y013213D01*
X003400Y013115D02*
X007600Y013115D01*
X007600Y013016D02*
X003400Y013016D01*
X003400Y012918D02*
X007600Y012918D01*
X007820Y012918D02*
X007930Y012918D01*
X007930Y013016D02*
X007820Y013016D01*
X007820Y013115D02*
X007930Y013115D01*
X007930Y013213D02*
X007820Y013213D01*
X007820Y013312D02*
X007930Y013312D01*
X007930Y013410D02*
X007820Y013410D01*
X007820Y013509D02*
X007930Y013509D01*
X007930Y013607D02*
X007820Y013607D01*
X007820Y013706D02*
X007930Y013706D01*
X007930Y013804D02*
X007820Y013804D01*
X007820Y013903D02*
X007930Y013903D01*
X007930Y014001D02*
X007820Y014001D01*
X007820Y014100D02*
X007930Y014100D01*
X007930Y014198D02*
X007820Y014198D01*
X007820Y014297D02*
X007930Y014297D01*
X007930Y014395D02*
X007820Y014395D01*
X007820Y014494D02*
X007930Y014494D01*
X007930Y014592D02*
X007820Y014592D01*
X007820Y014691D02*
X007930Y014691D01*
X007930Y014789D02*
X007820Y014789D01*
X007820Y014888D02*
X007930Y014888D01*
X007930Y014986D02*
X007820Y014986D01*
X007820Y015085D02*
X007930Y015085D01*
X007930Y015183D02*
X007820Y015183D01*
X007820Y015282D02*
X007930Y015282D01*
X007930Y015380D02*
X007820Y015380D01*
X007820Y015479D02*
X007930Y015479D01*
X007930Y015577D02*
X007820Y015577D01*
X007820Y015676D02*
X007930Y015676D01*
X007930Y015774D02*
X007820Y015774D01*
X007820Y015873D02*
X007930Y015873D01*
X007930Y015971D02*
X007820Y015971D01*
X007820Y016070D02*
X007930Y016070D01*
X007930Y016168D02*
X007820Y016168D01*
X007820Y016267D02*
X007930Y016267D01*
X007930Y016365D02*
X007820Y016365D01*
X007820Y016464D02*
X007930Y016464D01*
X007930Y016562D02*
X007820Y016562D01*
X007820Y016661D02*
X007930Y016661D01*
X007930Y016759D02*
X007820Y016759D01*
X007820Y016858D02*
X007930Y016858D01*
X007930Y016956D02*
X007820Y016956D01*
X007820Y017055D02*
X007930Y017055D01*
X007930Y017153D02*
X007820Y017153D01*
X007820Y017252D02*
X007930Y017252D01*
X007930Y017350D02*
X007820Y017350D01*
X007820Y017449D02*
X007930Y017449D01*
X007930Y017547D02*
X007820Y017547D01*
X007763Y017646D02*
X007930Y017646D01*
X006947Y019575D02*
X006875Y019587D01*
X006797Y019612D01*
X006724Y019649D01*
X006658Y019697D01*
X006600Y019755D01*
X006552Y019821D01*
X006515Y019894D01*
X006490Y019972D01*
X006478Y020044D01*
X006947Y020044D01*
X006947Y019575D01*
X006947Y019616D02*
X007047Y019616D01*
X007047Y019714D02*
X006947Y019714D01*
X006947Y019813D02*
X007047Y019813D01*
X007047Y019911D02*
X006947Y019911D01*
X006947Y020010D02*
X007047Y020010D01*
X007047Y020108D02*
X007947Y020108D01*
X007641Y019714D02*
X007353Y019714D01*
X007435Y019813D02*
X007558Y019813D01*
X007509Y019911D02*
X007484Y019911D01*
X007497Y020238D02*
X007479Y020294D01*
X007442Y020366D01*
X007393Y020433D01*
X007336Y020491D01*
X007269Y020539D01*
X007196Y020576D01*
X007145Y020592D01*
X007291Y020653D01*
X007422Y020784D01*
X007571Y020784D01*
X007702Y020653D01*
X007849Y020592D01*
X007797Y020576D01*
X007724Y020539D01*
X007658Y020491D01*
X007600Y020433D01*
X007552Y020366D01*
X007515Y020294D01*
X007497Y020238D01*
X007473Y020305D02*
X007521Y020305D01*
X007579Y020404D02*
X007414Y020404D01*
X007319Y020502D02*
X007674Y020502D01*
X007828Y020601D02*
X007165Y020601D01*
X007338Y020699D02*
X007656Y020699D01*
X008165Y020601D02*
X008530Y020601D01*
X008530Y020699D02*
X008338Y020699D01*
X008436Y020798D02*
X008530Y020798D01*
X008530Y020896D02*
X008478Y020896D01*
X008517Y020995D02*
X008530Y020995D01*
X008517Y021093D02*
X008530Y021093D01*
X008517Y021192D02*
X008530Y021192D01*
X008530Y021290D02*
X008478Y021290D01*
X008437Y021389D02*
X008530Y021389D01*
X008530Y021487D02*
X008339Y021487D01*
X008168Y021586D02*
X008530Y021586D01*
X008530Y021684D02*
X005370Y021684D01*
X005370Y021586D02*
X006826Y021586D01*
X006655Y021487D02*
X005370Y021487D01*
X005370Y021389D02*
X006556Y021389D01*
X006515Y021290D02*
X005370Y021290D01*
X005370Y021192D02*
X006477Y021192D01*
X006477Y021093D02*
X005370Y021093D01*
X005370Y020995D02*
X006477Y020995D01*
X006516Y020896D02*
X005370Y020896D01*
X005370Y020798D02*
X006557Y020798D01*
X006656Y020699D02*
X005370Y020699D01*
X005370Y020601D02*
X006828Y020601D01*
X006674Y020502D02*
X005370Y020502D01*
X005376Y020404D02*
X006579Y020404D01*
X006521Y020305D02*
X005474Y020305D01*
X005573Y020207D02*
X006488Y020207D01*
X006484Y020010D02*
X005770Y020010D01*
X005868Y019911D02*
X006509Y019911D01*
X006558Y019813D02*
X005967Y019813D01*
X006065Y019714D02*
X006641Y019714D01*
X006790Y019616D02*
X006164Y019616D01*
X005671Y020108D02*
X006947Y020108D01*
X007204Y019616D02*
X007790Y019616D01*
X008505Y020207D02*
X008530Y020207D01*
X008530Y020305D02*
X008473Y020305D01*
X008530Y020404D02*
X008414Y020404D01*
X008319Y020502D02*
X008530Y020502D01*
X007826Y021586D02*
X007168Y021586D01*
X007339Y021487D02*
X007655Y021487D01*
X007875Y022303D02*
X007797Y022329D01*
X007724Y022366D01*
X007658Y022414D01*
X007600Y022472D01*
X007552Y022538D01*
X007515Y022611D01*
X007497Y022667D01*
X007479Y022611D01*
X007442Y022538D01*
X007393Y022472D01*
X007336Y022414D01*
X007269Y022366D01*
X007196Y022329D01*
X007119Y022303D01*
X007047Y022292D01*
X007047Y022760D01*
X006947Y022760D01*
X006947Y022292D01*
X006875Y022303D01*
X006797Y022329D01*
X006724Y022366D01*
X006658Y022414D01*
X006600Y022472D01*
X006552Y022538D01*
X006515Y022611D01*
X006490Y022689D01*
X006478Y022760D01*
X006947Y022760D01*
X006947Y022860D01*
X006478Y022860D01*
X006490Y022932D01*
X006515Y023010D01*
X006552Y023083D01*
X006600Y023149D01*
X006658Y023207D01*
X006724Y023255D01*
X006797Y023292D01*
X006849Y023309D01*
X006702Y023370D01*
X006556Y023516D01*
X006477Y023707D01*
X006477Y023914D01*
X006556Y024105D01*
X006702Y024251D01*
X006893Y024330D01*
X007100Y024330D01*
X007291Y024251D01*
X007422Y024120D01*
X007571Y024120D01*
X007702Y024251D01*
X007893Y024330D01*
X008100Y024330D01*
X008291Y024251D01*
X008438Y024105D01*
X008517Y023914D01*
X008517Y023707D01*
X008438Y023516D01*
X008291Y023370D01*
X008145Y023309D01*
X008196Y023292D01*
X008269Y023255D01*
X008336Y023207D01*
X008393Y023149D01*
X008442Y023083D01*
X008479Y023010D01*
X008504Y022932D01*
X008515Y022860D01*
X008047Y022860D01*
X008047Y022760D01*
X008047Y022292D01*
X008119Y022303D01*
X008196Y022329D01*
X008269Y022366D01*
X008336Y022414D01*
X008393Y022472D01*
X008442Y022538D01*
X008479Y022611D01*
X008504Y022689D01*
X008515Y022760D01*
X008047Y022760D01*
X007947Y022760D01*
X007947Y022292D01*
X007875Y022303D01*
X007947Y022374D02*
X008047Y022374D01*
X008047Y022472D02*
X007947Y022472D01*
X007947Y022571D02*
X008047Y022571D01*
X008047Y022669D02*
X007947Y022669D01*
X007947Y022760D02*
X007047Y022760D01*
X007047Y022860D01*
X007478Y022860D01*
X007947Y022860D01*
X007947Y022760D01*
X007947Y022768D02*
X007047Y022768D01*
X007047Y022669D02*
X006947Y022669D01*
X006947Y022571D02*
X007047Y022571D01*
X007047Y022472D02*
X006947Y022472D01*
X006947Y022374D02*
X007047Y022374D01*
X007281Y022374D02*
X007713Y022374D01*
X007600Y022472D02*
X007394Y022472D01*
X007458Y022571D02*
X007535Y022571D01*
X007497Y022954D02*
X007479Y023010D01*
X007442Y023083D01*
X007393Y023149D01*
X007336Y023207D01*
X007269Y023255D01*
X007196Y023292D01*
X007145Y023309D01*
X007291Y023370D01*
X007422Y023500D01*
X007571Y023500D01*
X007702Y023370D01*
X007849Y023309D01*
X007797Y023292D01*
X007724Y023255D01*
X007658Y023207D01*
X007600Y023149D01*
X007552Y023083D01*
X007515Y023010D01*
X007497Y022954D01*
X007493Y022965D02*
X007500Y022965D01*
X007542Y023063D02*
X007452Y023063D01*
X007381Y023162D02*
X007613Y023162D01*
X007735Y023260D02*
X007259Y023260D01*
X007266Y023359D02*
X007728Y023359D01*
X007615Y023457D02*
X007379Y023457D01*
X006728Y023359D02*
X005370Y023359D01*
X005370Y023457D02*
X006615Y023457D01*
X006539Y023556D02*
X005370Y023556D01*
X005370Y023654D02*
X006499Y023654D01*
X006477Y023753D02*
X005370Y023753D01*
X005370Y023851D02*
X006477Y023851D01*
X006492Y023950D02*
X005370Y023950D01*
X005374Y024048D02*
X006533Y024048D01*
X006598Y024147D02*
X005484Y024147D01*
X005558Y024245D02*
X006696Y024245D01*
X007297Y024245D02*
X007696Y024245D01*
X007598Y024147D02*
X007396Y024147D01*
X006735Y023260D02*
X005370Y023260D01*
X005370Y023162D02*
X006613Y023162D01*
X006542Y023063D02*
X005370Y023063D01*
X005370Y022965D02*
X006500Y022965D01*
X006479Y022866D02*
X005370Y022866D01*
X005370Y022768D02*
X006947Y022768D01*
X006713Y022374D02*
X005370Y022374D01*
X005370Y022472D02*
X006600Y022472D01*
X006535Y022571D02*
X005370Y022571D01*
X005370Y022669D02*
X006496Y022669D01*
X005370Y022275D02*
X008530Y022275D01*
X008530Y022177D02*
X005370Y022177D01*
X005370Y022078D02*
X008530Y022078D01*
X008530Y021980D02*
X005370Y021980D01*
X005370Y021881D02*
X008530Y021881D01*
X008530Y021783D02*
X005370Y021783D01*
X004830Y022374D02*
X002470Y022374D01*
X002470Y022472D02*
X004830Y022472D01*
X004830Y022571D02*
X002470Y022571D01*
X002470Y022669D02*
X004830Y022669D01*
X004830Y022768D02*
X002470Y022768D01*
X002470Y022866D02*
X004830Y022866D01*
X004830Y022965D02*
X002470Y022965D01*
X002470Y023063D02*
X004830Y023063D01*
X004830Y023162D02*
X002470Y023162D01*
X002470Y023260D02*
X004830Y023260D01*
X004830Y023359D02*
X002470Y023359D01*
X002470Y023457D02*
X004830Y023457D01*
X004830Y023556D02*
X002470Y023556D01*
X002470Y023654D02*
X004830Y023654D01*
X004830Y023753D02*
X002470Y023753D01*
X002470Y023851D02*
X004830Y023851D01*
X004830Y023950D02*
X002470Y023950D01*
X002470Y024048D02*
X002826Y024048D01*
X002716Y024147D02*
X002470Y024147D01*
X002470Y024245D02*
X002642Y024245D01*
X002601Y024344D02*
X002470Y024344D01*
X002470Y024442D02*
X002580Y024442D01*
X002580Y024541D02*
X002470Y024541D01*
X002470Y024639D02*
X002596Y024639D01*
X002637Y024738D02*
X002470Y024738D01*
X002470Y024836D02*
X002703Y024836D01*
X002802Y024935D02*
X002470Y024935D01*
X002470Y025033D02*
X008530Y025033D01*
X008530Y024935D02*
X005398Y024935D01*
X005497Y024836D02*
X008530Y024836D01*
X008530Y024738D02*
X005563Y024738D01*
X005604Y024639D02*
X008530Y024639D01*
X008530Y024541D02*
X005620Y024541D01*
X005620Y024442D02*
X008530Y024442D01*
X008530Y024344D02*
X005599Y024344D01*
X005774Y025132D02*
X008530Y025132D01*
X008530Y025230D02*
X005870Y025230D01*
X005912Y025329D02*
X008488Y025329D01*
X008426Y025427D02*
X005974Y025427D01*
X006062Y025526D02*
X008338Y025526D01*
X008251Y025624D02*
X006149Y025624D01*
X006238Y025723D02*
X008162Y025723D01*
X008006Y025821D02*
X006394Y025821D01*
X006550Y025920D02*
X007850Y025920D01*
X007556Y026018D02*
X006844Y026018D01*
X008297Y024245D02*
X008530Y024245D01*
X008530Y024147D02*
X008396Y024147D01*
X008461Y024048D02*
X008530Y024048D01*
X008530Y023950D02*
X008502Y023950D01*
X008517Y023851D02*
X008530Y023851D01*
X008517Y023753D02*
X008530Y023753D01*
X008530Y023654D02*
X008495Y023654D01*
X008530Y023556D02*
X008454Y023556D01*
X008379Y023457D02*
X008530Y023457D01*
X008530Y023359D02*
X008266Y023359D01*
X008259Y023260D02*
X008530Y023260D01*
X008530Y023162D02*
X008381Y023162D01*
X008452Y023063D02*
X008530Y023063D01*
X008530Y022965D02*
X008493Y022965D01*
X008514Y022866D02*
X008530Y022866D01*
X008530Y022768D02*
X008047Y022768D01*
X008281Y022374D02*
X008530Y022374D01*
X008530Y022472D02*
X008394Y022472D01*
X008458Y022571D02*
X008530Y022571D01*
X008530Y022669D02*
X008498Y022669D01*
X004826Y024048D02*
X004374Y024048D01*
X004484Y024147D02*
X004716Y024147D01*
X004642Y024245D02*
X004558Y024245D01*
X004599Y024344D02*
X004601Y024344D01*
X004563Y024738D02*
X004637Y024738D01*
X004703Y024836D02*
X004497Y024836D01*
X004398Y024935D02*
X004802Y024935D01*
X003802Y024935D02*
X003398Y024935D01*
X003497Y024836D02*
X003703Y024836D01*
X003637Y024738D02*
X003563Y024738D01*
X003599Y024344D02*
X003601Y024344D01*
X003558Y024245D02*
X003642Y024245D01*
X003716Y024147D02*
X003484Y024147D01*
X003374Y024048D02*
X003826Y024048D01*
X007820Y012819D02*
X007930Y012819D01*
X007930Y012721D02*
X007734Y012721D01*
X007610Y012622D02*
X007930Y012622D01*
X007930Y012524D02*
X007610Y012524D01*
X007610Y012425D02*
X007930Y012425D01*
X007930Y012327D02*
X007610Y012327D01*
X007610Y012228D02*
X007930Y012228D01*
X007930Y012130D02*
X007610Y012130D01*
X007610Y012031D02*
X007930Y012031D01*
X007930Y011933D02*
X007610Y011933D01*
X007610Y011834D02*
X007930Y011834D01*
X007930Y011736D02*
X007610Y011736D01*
X007610Y011637D02*
X007930Y011637D01*
X007930Y011539D02*
X007610Y011539D01*
X007610Y011440D02*
X007930Y011440D01*
X007930Y011342D02*
X007610Y011342D01*
X007610Y011243D02*
X007930Y011243D01*
X007930Y011145D02*
X007610Y011145D01*
X007610Y011046D02*
X007930Y011046D01*
X007930Y010948D02*
X007610Y010948D01*
X007610Y010849D02*
X007930Y010849D01*
X007930Y010751D02*
X007610Y010751D01*
X007610Y010652D02*
X007930Y010652D01*
X007930Y010554D02*
X007610Y010554D01*
X007610Y010455D02*
X007930Y010455D01*
X007930Y010357D02*
X007610Y010357D01*
X007610Y010258D02*
X007930Y010258D01*
X007930Y010160D02*
X007610Y010160D01*
X007610Y010061D02*
X007930Y010061D01*
X007930Y009963D02*
X007610Y009963D01*
X007610Y009864D02*
X007930Y009864D01*
X007930Y009766D02*
X007610Y009766D01*
X007610Y009667D02*
X007930Y009667D01*
X007930Y009569D02*
X007610Y009569D01*
X007610Y009470D02*
X007930Y009470D01*
X007930Y009372D02*
X007610Y009372D01*
X007610Y009273D02*
X007930Y009273D01*
X007930Y009175D02*
X007610Y009175D01*
X007610Y009076D02*
X007930Y009076D01*
X007930Y008978D02*
X007610Y008978D01*
X007610Y008879D02*
X007930Y008879D01*
X007930Y008781D02*
X007610Y008781D01*
X007610Y008682D02*
X007930Y008682D01*
X007930Y008584D02*
X007610Y008584D01*
X007610Y008485D02*
X007930Y008485D01*
X007930Y008387D02*
X007610Y008387D01*
X007610Y008288D02*
X007930Y008288D01*
X007930Y008190D02*
X007610Y008190D01*
X007610Y008091D02*
X007930Y008091D01*
X007930Y007993D02*
X007610Y007993D01*
X007610Y007894D02*
X007930Y007894D01*
X007930Y007796D02*
X007593Y007796D01*
X007538Y007697D02*
X007930Y007697D01*
X007930Y007599D02*
X007439Y007599D01*
X007341Y007500D02*
X007930Y007500D01*
X008300Y007198D02*
X008300Y005298D01*
X006800Y005298D01*
X006800Y006898D01*
X007100Y007198D01*
X008300Y007198D01*
X008300Y007106D02*
X007009Y007106D01*
X006910Y007008D02*
X008300Y007008D01*
X008300Y006909D02*
X006812Y006909D01*
X006800Y006811D02*
X008300Y006811D01*
X008300Y006712D02*
X006800Y006712D01*
X006800Y006614D02*
X008300Y006614D01*
X008300Y006515D02*
X006800Y006515D01*
X006800Y006417D02*
X008300Y006417D01*
X008300Y006318D02*
X006800Y006318D01*
X006800Y006220D02*
X008300Y006220D01*
X008300Y006121D02*
X006800Y006121D01*
X006800Y006023D02*
X008300Y006023D01*
X008300Y005924D02*
X006800Y005924D01*
X006800Y005826D02*
X008300Y005826D01*
X008300Y005727D02*
X006800Y005727D01*
X006800Y005629D02*
X008300Y005629D01*
X008300Y005530D02*
X006800Y005530D01*
X006800Y005432D02*
X008300Y005432D01*
X008300Y005333D02*
X006800Y005333D01*
X006580Y005333D02*
X006474Y005333D01*
X006567Y005432D02*
X006580Y005432D01*
X006580Y005235D02*
X006375Y005235D01*
X006080Y004939D02*
X008530Y004939D01*
X008530Y004841D02*
X005981Y004841D01*
X005883Y004742D02*
X008530Y004742D01*
X008530Y004644D02*
X005784Y004644D01*
X005686Y004545D02*
X008530Y004545D01*
X008530Y004447D02*
X005587Y004447D01*
X005489Y004348D02*
X008530Y004348D01*
X008530Y004250D02*
X005390Y004250D01*
X005105Y004841D02*
X002470Y004841D01*
X002470Y004939D02*
X005203Y004939D01*
X005302Y005038D02*
X002470Y005038D01*
X002470Y005136D02*
X005400Y005136D01*
X005499Y005235D02*
X002470Y005235D01*
X002470Y005333D02*
X005597Y005333D01*
X005696Y005432D02*
X002470Y005432D01*
X002470Y005530D02*
X005794Y005530D01*
X005893Y005629D02*
X002470Y005629D01*
X002470Y005727D02*
X005990Y005727D01*
X005990Y005826D02*
X003973Y005826D01*
X004111Y005924D02*
X005990Y005924D01*
X005990Y006023D02*
X004963Y006023D01*
X005062Y006121D02*
X005990Y006121D01*
X005990Y006220D02*
X005160Y006220D01*
X005259Y006318D02*
X005990Y006318D01*
X005990Y006417D02*
X005357Y006417D01*
X005456Y006515D02*
X005990Y006515D01*
X005990Y006614D02*
X005554Y006614D01*
X005653Y006712D02*
X005990Y006712D01*
X005990Y006811D02*
X005751Y006811D01*
X005850Y006909D02*
X005990Y006909D01*
X006010Y007008D02*
X005948Y007008D01*
X006047Y007106D02*
X006070Y007106D01*
X006076Y007135D02*
X006076Y007135D01*
X006145Y007205D02*
X006169Y007205D01*
X006196Y007303D02*
X006267Y007303D01*
X006210Y007402D02*
X006366Y007402D01*
X006464Y007500D02*
X006210Y007500D01*
X006210Y007599D02*
X006563Y007599D01*
X006661Y007697D02*
X006210Y007697D01*
X006210Y007796D02*
X006760Y007796D01*
X006858Y007894D02*
X006210Y007894D01*
X006210Y007993D02*
X006957Y007993D01*
X006990Y008091D02*
X006210Y008091D01*
X006210Y008190D02*
X006990Y008190D01*
X006990Y008288D02*
X006210Y008288D01*
X006210Y008387D02*
X006990Y008387D01*
X006990Y008485D02*
X006210Y008485D01*
X006210Y008584D02*
X006990Y008584D01*
X006990Y008682D02*
X006210Y008682D01*
X006210Y008781D02*
X006990Y008781D01*
X006990Y008879D02*
X006210Y008879D01*
X006210Y008978D02*
X006990Y008978D01*
X006990Y009076D02*
X006210Y009076D01*
X006279Y009175D02*
X006990Y009175D01*
X006990Y009273D02*
X006483Y009273D01*
X006582Y009372D02*
X006990Y009372D01*
X006990Y009470D02*
X006680Y009470D01*
X006757Y009569D02*
X006990Y009569D01*
X006990Y009667D02*
X006798Y009667D01*
X006839Y009766D02*
X006990Y009766D01*
X006990Y009864D02*
X006879Y009864D01*
X006894Y009963D02*
X006990Y009963D01*
X006990Y010061D02*
X006894Y010061D01*
X006894Y010160D02*
X006990Y010160D01*
X006990Y010258D02*
X006894Y010258D01*
X006869Y010357D02*
X006990Y010357D01*
X006990Y010455D02*
X006828Y010455D01*
X006787Y010554D02*
X006990Y010554D01*
X006990Y010652D02*
X006746Y010652D01*
X006655Y010751D02*
X006990Y010751D01*
X006990Y010849D02*
X006556Y010849D01*
X006455Y010948D02*
X006990Y010948D01*
X006990Y011046D02*
X006217Y011046D01*
X005571Y011046D02*
X005384Y011046D01*
X005285Y011145D02*
X006990Y011145D01*
X006990Y011243D02*
X005187Y011243D01*
X005088Y011342D02*
X006990Y011342D01*
X006990Y011440D02*
X004990Y011440D01*
X004891Y011539D02*
X006990Y011539D01*
X006990Y011637D02*
X004793Y011637D01*
X004694Y011736D02*
X006990Y011736D01*
X006990Y011834D02*
X004596Y011834D01*
X004310Y011243D02*
X002470Y011243D01*
X002470Y011145D02*
X004408Y011145D01*
X004507Y011046D02*
X003849Y011046D01*
X003809Y011060D02*
X003699Y011085D01*
X003588Y011098D01*
X003581Y011098D01*
X003581Y010148D01*
X003481Y010148D01*
X003481Y010048D01*
X002531Y010048D01*
X002531Y010042D01*
X002544Y009930D01*
X002569Y009821D01*
X002606Y009715D01*
X002655Y009613D01*
X002715Y009518D01*
X002785Y009430D01*
X002864Y009351D01*
X002952Y009281D01*
X003047Y009221D01*
X003148Y009173D01*
X003254Y009135D01*
X003364Y009110D01*
X003475Y009098D01*
X003481Y009098D01*
X003481Y010048D01*
X003581Y010048D01*
X003581Y009098D01*
X003588Y009098D01*
X003699Y009110D01*
X003809Y009135D01*
X003915Y009173D01*
X004016Y009221D01*
X004111Y009281D01*
X004199Y009351D01*
X004278Y009430D01*
X004348Y009518D01*
X004408Y009613D01*
X004457Y009715D01*
X004494Y009821D01*
X004519Y009930D01*
X004531Y010042D01*
X004531Y010048D01*
X003582Y010048D01*
X003582Y010148D01*
X004531Y010148D01*
X004531Y010154D01*
X004519Y010266D01*
X004494Y010375D01*
X004457Y010481D01*
X004408Y010582D01*
X004348Y010677D01*
X004278Y010765D01*
X004199Y010845D01*
X004111Y010915D01*
X004016Y010974D01*
X003915Y011023D01*
X003809Y011060D01*
X003581Y011046D02*
X003481Y011046D01*
X003481Y011098D02*
X003475Y011098D01*
X003364Y011085D01*
X003254Y011060D01*
X003148Y011023D01*
X003047Y010974D01*
X002952Y010915D01*
X002864Y010845D01*
X002785Y010765D01*
X002715Y010677D01*
X002655Y010582D01*
X002606Y010481D01*
X002569Y010375D01*
X002544Y010266D01*
X002531Y010154D01*
X002531Y010148D01*
X003481Y010148D01*
X003481Y011098D01*
X003481Y010948D02*
X003581Y010948D01*
X003581Y010849D02*
X003481Y010849D01*
X003481Y010751D02*
X003581Y010751D01*
X003581Y010652D02*
X003481Y010652D01*
X003481Y010554D02*
X003581Y010554D01*
X003581Y010455D02*
X003481Y010455D01*
X003481Y010357D02*
X003581Y010357D01*
X003581Y010258D02*
X003481Y010258D01*
X003481Y010160D02*
X003581Y010160D01*
X003582Y010061D02*
X004894Y010061D01*
X004894Y009963D02*
X004523Y009963D01*
X004504Y009864D02*
X004908Y009864D01*
X004949Y009766D02*
X004475Y009766D01*
X004434Y009667D02*
X004990Y009667D01*
X005030Y009569D02*
X004380Y009569D01*
X004310Y009470D02*
X005107Y009470D01*
X005205Y009372D02*
X004220Y009372D01*
X004099Y009273D02*
X005304Y009273D01*
X005273Y009076D02*
X005590Y009076D01*
X005590Y008978D02*
X005396Y008978D01*
X005488Y008879D02*
X005590Y008879D01*
X005590Y008781D02*
X005558Y008781D01*
X005509Y009175D02*
X005090Y009175D01*
X004763Y009175D02*
X004663Y009175D01*
X004663Y009247D02*
X004656Y009247D01*
X004545Y009235D01*
X004435Y009210D01*
X004329Y009173D01*
X004228Y009124D01*
X004133Y009064D01*
X004045Y008994D01*
X003966Y008915D01*
X003896Y008827D01*
X003836Y008732D01*
X003787Y008631D01*
X003750Y008525D01*
X003725Y008415D01*
X003713Y008304D01*
X003713Y008297D01*
X004663Y008297D01*
X004663Y009247D01*
X004663Y009076D02*
X004763Y009076D01*
X004763Y008978D02*
X004663Y008978D01*
X004663Y008879D02*
X004763Y008879D01*
X004763Y008781D02*
X004663Y008781D01*
X004663Y008682D02*
X004763Y008682D01*
X004763Y008584D02*
X004663Y008584D01*
X004663Y008485D02*
X004763Y008485D01*
X004763Y008387D02*
X004663Y008387D01*
X004663Y008288D02*
X002470Y008288D01*
X002470Y008190D02*
X003713Y008190D01*
X003713Y008191D02*
X003725Y008080D01*
X003750Y007970D01*
X003787Y007864D01*
X003836Y007763D01*
X003896Y007668D01*
X003966Y007580D01*
X004045Y007501D01*
X004133Y007431D01*
X004228Y007371D01*
X004329Y007322D01*
X004435Y007285D01*
X004545Y007260D01*
X004656Y007247D01*
X004663Y007247D01*
X004663Y008197D01*
X003713Y008197D01*
X003713Y008191D01*
X003724Y008091D02*
X002470Y008091D01*
X002470Y007993D02*
X003745Y007993D01*
X003777Y007894D02*
X002470Y007894D01*
X002470Y007796D02*
X003820Y007796D01*
X003877Y007697D02*
X002470Y007697D01*
X002470Y007599D02*
X003951Y007599D01*
X004046Y007500D02*
X002470Y007500D01*
X002470Y007402D02*
X004179Y007402D01*
X004383Y007303D02*
X002470Y007303D01*
X002470Y007205D02*
X005269Y007205D01*
X005367Y007303D02*
X005042Y007303D01*
X005246Y007402D02*
X005466Y007402D01*
X005380Y007500D02*
X005564Y007500D01*
X005590Y007599D02*
X005474Y007599D01*
X005548Y007697D02*
X005590Y007697D01*
X005170Y007106D02*
X002470Y007106D01*
X002470Y007008D02*
X005072Y007008D01*
X004973Y006909D02*
X002470Y006909D01*
X002470Y006811D02*
X004875Y006811D01*
X004776Y006712D02*
X004036Y006712D01*
X004137Y006614D02*
X004678Y006614D01*
X004663Y007303D02*
X004763Y007303D01*
X004763Y007402D02*
X004663Y007402D01*
X004663Y007500D02*
X004763Y007500D01*
X004763Y007599D02*
X004663Y007599D01*
X004663Y007697D02*
X004763Y007697D01*
X004763Y007796D02*
X004663Y007796D01*
X004663Y007894D02*
X004763Y007894D01*
X004763Y007993D02*
X004663Y007993D01*
X004663Y008091D02*
X004763Y008091D01*
X004763Y008190D02*
X004663Y008190D01*
X003937Y008879D02*
X002470Y008879D01*
X002470Y008781D02*
X003867Y008781D01*
X003812Y008682D02*
X002470Y008682D01*
X002470Y008584D02*
X003771Y008584D01*
X003741Y008485D02*
X002470Y008485D01*
X002470Y008387D02*
X003722Y008387D01*
X004029Y008978D02*
X002470Y008978D01*
X002470Y009076D02*
X004152Y009076D01*
X004335Y009175D02*
X003920Y009175D01*
X003581Y009175D02*
X003481Y009175D01*
X003481Y009273D02*
X003581Y009273D01*
X003581Y009372D02*
X003481Y009372D01*
X003481Y009470D02*
X003581Y009470D01*
X003581Y009569D02*
X003481Y009569D01*
X003481Y009667D02*
X003581Y009667D01*
X003581Y009766D02*
X003481Y009766D01*
X003481Y009864D02*
X003581Y009864D01*
X003581Y009963D02*
X003481Y009963D01*
X003481Y010061D02*
X002470Y010061D01*
X002470Y009963D02*
X002540Y009963D01*
X002559Y009864D02*
X002470Y009864D01*
X002470Y009766D02*
X002588Y009766D01*
X002629Y009667D02*
X002470Y009667D01*
X002470Y009569D02*
X002683Y009569D01*
X002753Y009470D02*
X002470Y009470D01*
X002470Y009372D02*
X002843Y009372D01*
X002964Y009273D02*
X002470Y009273D01*
X002470Y009175D02*
X003143Y009175D01*
X002532Y010160D02*
X002470Y010160D01*
X002470Y010258D02*
X002543Y010258D01*
X002565Y010357D02*
X002470Y010357D01*
X002470Y010455D02*
X002597Y010455D01*
X002641Y010554D02*
X002470Y010554D01*
X002470Y010652D02*
X002699Y010652D01*
X002773Y010751D02*
X002470Y010751D01*
X002470Y010849D02*
X002870Y010849D01*
X003005Y010948D02*
X002470Y010948D01*
X002470Y011046D02*
X003214Y011046D01*
X003018Y011342D02*
X002470Y011342D01*
X002470Y011440D02*
X002919Y011440D01*
X004058Y010948D02*
X004605Y010948D01*
X004704Y010849D02*
X004193Y010849D01*
X004290Y010751D02*
X004802Y010751D01*
X004901Y010652D02*
X004364Y010652D01*
X004422Y010554D02*
X004999Y010554D01*
X004959Y010455D02*
X004466Y010455D01*
X004498Y010357D02*
X004919Y010357D01*
X004894Y010258D02*
X004520Y010258D01*
X004531Y010160D02*
X004894Y010160D01*
X002764Y006712D02*
X002470Y006712D01*
X002470Y006614D02*
X002663Y006614D01*
X002595Y006515D02*
X002470Y006515D01*
X002470Y006417D02*
X002554Y006417D01*
X002540Y006318D02*
X002470Y006318D01*
X002470Y006220D02*
X002540Y006220D01*
X002565Y006121D02*
X002470Y006121D01*
X002470Y006023D02*
X002606Y006023D01*
X002689Y005924D02*
X002470Y005924D01*
X002470Y005826D02*
X002827Y005826D01*
X002776Y004742D02*
X002470Y004742D01*
X002470Y004644D02*
X002661Y004644D01*
X002596Y004545D02*
X002470Y004545D01*
X002470Y004447D02*
X002557Y004447D01*
X002470Y003757D02*
X004021Y003757D01*
X003969Y003856D02*
X004120Y003856D01*
X004110Y003954D02*
X004218Y003954D01*
X004189Y004053D02*
X004317Y004053D01*
X004233Y004151D02*
X004415Y004151D01*
X003923Y003659D02*
X002470Y003659D01*
X003350Y003856D02*
X003450Y003856D01*
X003450Y003954D02*
X003350Y003954D01*
X003350Y004053D02*
X003450Y004053D01*
X003450Y004151D02*
X003350Y004151D01*
X003350Y004447D02*
X003450Y004447D01*
X003450Y004545D02*
X003350Y004545D01*
X003350Y004644D02*
X003450Y004644D01*
X003450Y004742D02*
X003350Y004742D01*
X007947Y002378D02*
X008047Y002378D01*
X008047Y002280D02*
X007947Y002280D01*
X007947Y002181D02*
X008047Y002181D01*
D15*
X007900Y005698D03*
X007900Y006898D03*
X007200Y013298D03*
X006300Y013898D03*
X005500Y013298D03*
X004700Y013898D03*
X003800Y013298D03*
X003800Y014598D03*
X003800Y015798D03*
X003800Y017098D03*
X007200Y017098D03*
X007200Y015798D03*
X007200Y014598D03*
D16*
X006400Y013798D02*
X006300Y013898D01*
X007200Y013298D02*
X007300Y013298D01*
X007300Y007898D01*
X006300Y006898D01*
X006300Y005598D01*
X004000Y003298D01*
X003400Y003298D01*
X003100Y002998D01*
X003100Y002498D01*
X004100Y002498D02*
X004100Y001898D01*
X004400Y001598D01*
X005800Y001598D01*
X006100Y001898D01*
X006100Y003198D01*
X006500Y003598D01*
X006997Y003598D01*
X007997Y003598D01*
X004784Y006282D02*
X005900Y007398D01*
X005900Y010092D01*
X005894Y010098D01*
X004394Y011598D01*
X003200Y011598D01*
X002800Y011998D01*
X002800Y019298D01*
X003200Y019698D01*
X006997Y021094D02*
X007997Y021094D01*
X007997Y023810D02*
X006997Y023810D01*
X004784Y006282D02*
X003400Y006282D01*
D17*
X007900Y006898D02*
X008200Y007198D01*
X008200Y017998D01*
X007600Y018598D01*
X006800Y018598D01*
X005100Y020298D01*
X005100Y024498D01*
M02*
