%
M48
M72
T01C0.0160
T02C0.0400
T03C0.0470
T04C0.1180
%
T01
X3800Y17098
X3800Y15798
X3800Y14598
X4700Y13898
X5500Y13298
X6300Y13898
X7200Y13298
X7200Y14598
X7200Y15798
X7200Y17098
X3800Y13298
X7900Y6898
X7900Y5698
T02
X5100Y24498
X4100Y24498
X3100Y24498
X3200Y21698
X3200Y20698
X3200Y19698
X6997Y20094
X7997Y20094
X7997Y21094
X6997Y21094
X6997Y22810
X7997Y22810
X7997Y23810
X6997Y23810
X7997Y2598
X3100Y2498
X4100Y2498
X5100Y2498
X6997Y2598
X6997Y3598
X7997Y3598
T03
X3400Y4314
X3400Y6282
T04
X4713Y8247
X5894Y10098
X3531Y10098
M30
