G75*
G70*
%OFA0B0*%
%FSLAX24Y24*%
%IPPOS*%
%LPD*%
%AMOC8*
5,1,8,0,0,1.08239X$1,22.5*
%
%ADD10C,0.0000*%
%ADD11R,0.0579X0.0697*%
%ADD12C,0.1700*%
%ADD13C,0.0740*%
%ADD14R,0.0480X0.0880*%
%ADD15R,0.1417X0.0866*%
%ADD16R,0.0630X0.1181*%
%ADD17R,0.2283X0.2441*%
%ADD18R,0.0394X0.0433*%
%ADD19R,0.0472X0.0472*%
%ADD20R,0.0217X0.0472*%
%ADD21R,0.0433X0.0394*%
%ADD22C,0.0710*%
%ADD23C,0.0100*%
%ADD24C,0.0320*%
%ADD25OC8,0.0360*%
%ADD26C,0.0240*%
D10*
X002300Y001098D02*
X002300Y025298D01*
X005700Y025298D01*
X005737Y025371D01*
X005777Y025441D01*
X005820Y025510D01*
X005867Y025577D01*
X005918Y025641D01*
X005971Y025702D01*
X006027Y025761D01*
X006086Y025817D01*
X006148Y025870D01*
X006212Y025920D01*
X006279Y025967D01*
X006347Y026010D01*
X006418Y026051D01*
X006491Y026087D01*
X006565Y026120D01*
X006641Y026149D01*
X006719Y026175D01*
X006797Y026196D01*
X006877Y026214D01*
X006957Y026228D01*
X007037Y026238D01*
X007119Y026244D01*
X007200Y026246D01*
X007281Y026244D01*
X007363Y026238D01*
X007443Y026228D01*
X007523Y026214D01*
X007603Y026196D01*
X007681Y026175D01*
X007759Y026149D01*
X007835Y026120D01*
X007909Y026087D01*
X007982Y026051D01*
X008053Y026010D01*
X008121Y025967D01*
X008188Y025920D01*
X008252Y025870D01*
X008314Y025817D01*
X008373Y025761D01*
X008429Y025702D01*
X008482Y025641D01*
X008533Y025577D01*
X008580Y025510D01*
X008623Y025441D01*
X008663Y025371D01*
X008700Y025298D01*
X008700Y001098D01*
X008663Y001025D01*
X008623Y000955D01*
X008580Y000886D01*
X008533Y000819D01*
X008482Y000755D01*
X008429Y000694D01*
X008373Y000635D01*
X008314Y000579D01*
X008252Y000526D01*
X008188Y000476D01*
X008121Y000429D01*
X008053Y000386D01*
X007982Y000345D01*
X007909Y000309D01*
X007835Y000276D01*
X007759Y000247D01*
X007681Y000221D01*
X007603Y000200D01*
X007523Y000182D01*
X007443Y000168D01*
X007363Y000158D01*
X007281Y000152D01*
X007200Y000150D01*
X007119Y000152D01*
X007037Y000158D01*
X006957Y000168D01*
X006877Y000182D01*
X006797Y000200D01*
X006719Y000221D01*
X006641Y000247D01*
X006565Y000276D01*
X006491Y000309D01*
X006418Y000345D01*
X006347Y000386D01*
X006279Y000429D01*
X006212Y000476D01*
X006148Y000526D01*
X006086Y000579D01*
X006027Y000635D01*
X005971Y000694D01*
X005918Y000755D01*
X005867Y000819D01*
X005820Y000886D01*
X005777Y000955D01*
X005737Y001025D01*
X005700Y001098D01*
X002300Y001098D01*
D11*
X004600Y020153D03*
X004600Y022043D03*
D12*
X003531Y010098D03*
X004713Y008247D03*
X005894Y010098D03*
D13*
X006997Y003598D03*
X007997Y003598D03*
X007997Y002598D03*
X006997Y002598D03*
X005100Y002498D03*
X004100Y002498D03*
X003100Y002498D03*
X003200Y019698D03*
X003200Y020698D03*
X003200Y021698D03*
X003100Y024498D03*
X004100Y024498D03*
X005100Y024498D03*
X006997Y023810D03*
X006997Y022810D03*
X007997Y022810D03*
X007997Y023810D03*
X007997Y021094D03*
X007997Y020094D03*
X006997Y020094D03*
X006997Y021094D03*
D14*
X006410Y018518D03*
X005500Y018518D03*
X004590Y018518D03*
D15*
X005500Y016078D03*
D16*
X004602Y018588D03*
X006398Y018588D03*
D17*
X005500Y015761D03*
D18*
X002900Y015732D03*
X002900Y015063D03*
X002900Y016663D03*
X002900Y017332D03*
X008100Y017332D03*
X008100Y016663D03*
X008100Y015732D03*
X008100Y015063D03*
X008100Y011532D03*
X008100Y010863D03*
D19*
X007713Y012198D03*
X006887Y012198D03*
D20*
X006800Y007810D03*
X006426Y007810D03*
X007174Y007810D03*
X007174Y006786D03*
X006426Y006786D03*
D21*
X006365Y005598D03*
X007035Y005598D03*
X007365Y009598D03*
X008035Y009598D03*
D22*
X003755Y006282D02*
X003045Y006282D01*
X003045Y004314D02*
X003755Y004314D01*
D23*
X004024Y004742D02*
X005585Y004742D01*
X005547Y004727D02*
X005646Y004768D01*
X007488Y004768D01*
X007630Y004910D01*
X007630Y005078D01*
X006709Y005078D01*
X006580Y005207D01*
X006580Y005251D01*
X006414Y005251D01*
X006414Y005549D01*
X006317Y005549D01*
X006317Y005251D01*
X006129Y005251D01*
X006091Y005261D01*
X006057Y005281D01*
X006029Y005309D01*
X006009Y005343D01*
X005999Y005381D01*
X005999Y005549D01*
X006317Y005549D01*
X006317Y005646D01*
X005999Y005646D01*
X005999Y005814D01*
X006009Y005853D01*
X006029Y005887D01*
X006057Y005915D01*
X006091Y005934D01*
X006129Y005945D01*
X006317Y005945D01*
X006317Y005646D01*
X006414Y005646D01*
X006414Y005945D01*
X006580Y005945D01*
X006580Y006400D01*
X006256Y006400D01*
X006168Y006488D01*
X006168Y007084D01*
X006256Y007172D01*
X006596Y007172D01*
X006680Y007089D01*
X007009Y007418D01*
X008391Y007418D01*
X008520Y007289D01*
X008520Y005207D01*
X008391Y005078D01*
X008170Y005078D01*
X008170Y004744D01*
X008129Y004645D01*
X008053Y004569D01*
X007829Y004345D01*
X007753Y004269D01*
X007654Y004228D01*
X005812Y004228D01*
X005370Y003786D01*
X005370Y002949D01*
X005395Y002939D01*
X005541Y002792D01*
X005620Y002601D01*
X005620Y002394D01*
X005541Y002203D01*
X005395Y002057D01*
X005203Y001978D01*
X004997Y001978D01*
X004805Y002057D01*
X004659Y002203D01*
X004600Y002346D01*
X004541Y002203D01*
X004395Y002057D01*
X004203Y001978D01*
X003997Y001978D01*
X003805Y002057D01*
X003659Y002203D01*
X003600Y002346D01*
X003541Y002203D01*
X003395Y002057D01*
X003203Y001978D01*
X002997Y001978D01*
X002805Y002057D01*
X002659Y002203D01*
X002580Y002394D01*
X002580Y002601D01*
X002659Y002792D01*
X002805Y002939D01*
X002997Y003018D01*
X003203Y003018D01*
X003395Y002939D01*
X003541Y002792D01*
X003600Y002650D01*
X003659Y002792D01*
X003805Y002939D01*
X003997Y003018D01*
X004203Y003018D01*
X004395Y002939D01*
X004541Y002792D01*
X004600Y002650D01*
X004659Y002792D01*
X004805Y002939D01*
X004830Y002949D01*
X004830Y003952D01*
X004871Y004051D01*
X004947Y004127D01*
X005547Y004727D01*
X005464Y004644D02*
X004139Y004644D01*
X004140Y004643D02*
X004084Y004699D01*
X004020Y004746D01*
X003949Y004782D01*
X003873Y004806D01*
X003795Y004819D01*
X003450Y004819D01*
X003450Y004364D01*
X003350Y004364D01*
X003350Y004819D01*
X003005Y004819D01*
X002927Y004806D01*
X002851Y004782D01*
X002780Y004746D01*
X002716Y004699D01*
X002660Y004643D01*
X002613Y004578D01*
X002577Y004507D01*
X002552Y004432D01*
X002542Y004364D01*
X003350Y004364D01*
X003350Y004264D01*
X002542Y004264D01*
X002552Y004195D01*
X002577Y004120D01*
X002613Y004049D01*
X002660Y003985D01*
X002716Y003928D01*
X002780Y003882D01*
X002851Y003846D01*
X002927Y003821D01*
X003005Y003809D01*
X003350Y003809D01*
X003350Y004264D01*
X003450Y004264D01*
X003450Y004364D01*
X004258Y004364D01*
X004248Y004432D01*
X004223Y004507D01*
X004187Y004578D01*
X004140Y004643D01*
X004204Y004545D02*
X005366Y004545D01*
X005267Y004447D02*
X004243Y004447D01*
X004258Y004264D02*
X003450Y004264D01*
X003450Y003809D01*
X003795Y003809D01*
X003873Y003821D01*
X003949Y003846D01*
X004020Y003882D01*
X004084Y003928D01*
X004140Y003985D01*
X004187Y004049D01*
X004223Y004120D01*
X004248Y004195D01*
X004258Y004264D01*
X004256Y004250D02*
X005070Y004250D01*
X004972Y004151D02*
X004233Y004151D01*
X004189Y004053D02*
X004873Y004053D01*
X004831Y003954D02*
X004110Y003954D01*
X003969Y003856D02*
X004830Y003856D01*
X004830Y003757D02*
X002470Y003757D01*
X002470Y003659D02*
X004830Y003659D01*
X004830Y003560D02*
X002470Y003560D01*
X002470Y003462D02*
X004830Y003462D01*
X004830Y003363D02*
X002470Y003363D01*
X002470Y003265D02*
X004830Y003265D01*
X004830Y003166D02*
X002470Y003166D01*
X002470Y003068D02*
X004830Y003068D01*
X004830Y002969D02*
X004321Y002969D01*
X004462Y002871D02*
X004738Y002871D01*
X004651Y002772D02*
X004549Y002772D01*
X004590Y002674D02*
X004610Y002674D01*
X004627Y002280D02*
X004573Y002280D01*
X004519Y002181D02*
X004681Y002181D01*
X004780Y002083D02*
X004420Y002083D01*
X004219Y001984D02*
X004981Y001984D01*
X005219Y001984D02*
X008530Y001984D01*
X008530Y001886D02*
X002470Y001886D01*
X002470Y001984D02*
X002981Y001984D01*
X002780Y002083D02*
X002470Y002083D01*
X002470Y002181D02*
X002681Y002181D01*
X002627Y002280D02*
X002470Y002280D01*
X002470Y002378D02*
X002587Y002378D01*
X002580Y002477D02*
X002470Y002477D01*
X002470Y002575D02*
X002580Y002575D01*
X002610Y002674D02*
X002470Y002674D01*
X002470Y002772D02*
X002651Y002772D01*
X002738Y002871D02*
X002470Y002871D01*
X002470Y002969D02*
X002879Y002969D01*
X003321Y002969D02*
X003879Y002969D01*
X003738Y002871D02*
X003462Y002871D01*
X003549Y002772D02*
X003651Y002772D01*
X003610Y002674D02*
X003590Y002674D01*
X003573Y002280D02*
X003627Y002280D01*
X003681Y002181D02*
X003519Y002181D01*
X003420Y002083D02*
X003780Y002083D01*
X003981Y001984D02*
X003219Y001984D01*
X002470Y001787D02*
X008530Y001787D01*
X008530Y001689D02*
X002470Y001689D01*
X002470Y001590D02*
X008530Y001590D01*
X008530Y001492D02*
X002470Y001492D01*
X002470Y001393D02*
X008530Y001393D01*
X008530Y001295D02*
X002470Y001295D01*
X002470Y001268D02*
X002470Y025128D01*
X005662Y025128D01*
X005691Y025114D01*
X005729Y025128D01*
X005770Y025128D01*
X005793Y025151D01*
X005823Y025161D01*
X005841Y025198D01*
X005870Y025227D01*
X005870Y025254D01*
X005957Y025408D01*
X006235Y025721D01*
X006588Y025944D01*
X006991Y026061D01*
X007409Y026061D01*
X007812Y025944D01*
X008165Y025721D01*
X008443Y025408D01*
X008530Y025254D01*
X008530Y001142D01*
X008443Y000988D01*
X008165Y000675D01*
X007812Y000451D01*
X007409Y000335D01*
X006991Y000335D01*
X006588Y000451D01*
X006235Y000675D01*
X005957Y000988D01*
X005870Y001142D01*
X005870Y001168D01*
X005841Y001197D01*
X005823Y001234D01*
X005793Y001245D01*
X005770Y001268D01*
X005729Y001268D01*
X005691Y001282D01*
X005662Y001268D01*
X002470Y001268D01*
X002470Y003856D02*
X002831Y003856D01*
X002690Y003954D02*
X002470Y003954D01*
X002470Y004053D02*
X002611Y004053D01*
X002567Y004151D02*
X002470Y004151D01*
X002470Y004250D02*
X002544Y004250D01*
X002470Y004348D02*
X003350Y004348D01*
X003350Y004250D02*
X003450Y004250D01*
X003450Y004348D02*
X005169Y004348D01*
X005538Y003954D02*
X006618Y003954D01*
X006556Y003892D02*
X006477Y003701D01*
X006477Y003494D01*
X006556Y003303D01*
X006702Y003157D01*
X006849Y003096D01*
X006797Y003080D01*
X006724Y003043D01*
X006658Y002994D01*
X006600Y002937D01*
X006552Y002870D01*
X006515Y002797D01*
X006490Y002720D01*
X006478Y002648D01*
X006947Y002648D01*
X006947Y002548D01*
X007047Y002548D01*
X007047Y002648D01*
X007515Y002648D01*
X007947Y002648D01*
X007947Y002548D01*
X008047Y002548D01*
X008047Y002648D01*
X008515Y002648D01*
X008504Y002720D01*
X008479Y002797D01*
X008442Y002870D01*
X008393Y002937D01*
X008336Y002994D01*
X008269Y003043D01*
X008196Y003080D01*
X008145Y003096D01*
X008291Y003157D01*
X008438Y003303D01*
X008517Y003494D01*
X008517Y003701D01*
X008438Y003892D01*
X008291Y004039D01*
X008100Y004118D01*
X007893Y004118D01*
X007702Y004039D01*
X007571Y003908D01*
X007422Y003908D01*
X007291Y004039D01*
X007100Y004118D01*
X006893Y004118D01*
X006702Y004039D01*
X006556Y003892D01*
X006541Y003856D02*
X005440Y003856D01*
X005370Y003757D02*
X006500Y003757D01*
X006477Y003659D02*
X005370Y003659D01*
X005370Y003560D02*
X006477Y003560D01*
X006490Y003462D02*
X005370Y003462D01*
X005370Y003363D02*
X006531Y003363D01*
X006594Y003265D02*
X005370Y003265D01*
X005370Y003166D02*
X006693Y003166D01*
X006774Y003068D02*
X005370Y003068D01*
X005370Y002969D02*
X006633Y002969D01*
X006552Y002871D02*
X005462Y002871D01*
X005549Y002772D02*
X006507Y002772D01*
X006482Y002674D02*
X005590Y002674D01*
X005620Y002575D02*
X006947Y002575D01*
X006947Y002548D02*
X006478Y002548D01*
X006490Y002476D01*
X006515Y002398D01*
X006552Y002325D01*
X006600Y002259D01*
X006658Y002201D01*
X006724Y002153D01*
X006797Y002116D01*
X006875Y002091D01*
X006947Y002079D01*
X006947Y002548D01*
X006947Y002477D02*
X007047Y002477D01*
X007047Y002548D02*
X007047Y002079D01*
X007119Y002091D01*
X007196Y002116D01*
X007269Y002153D01*
X007336Y002201D01*
X007393Y002259D01*
X007442Y002325D01*
X007479Y002398D01*
X007497Y002454D01*
X007515Y002398D01*
X007552Y002325D01*
X007600Y002259D01*
X007658Y002201D01*
X007724Y002153D01*
X007797Y002116D01*
X007875Y002091D01*
X007947Y002079D01*
X007947Y002548D01*
X007047Y002548D01*
X007047Y002575D02*
X007947Y002575D01*
X007947Y002477D02*
X008047Y002477D01*
X008047Y002548D02*
X008047Y002079D01*
X008119Y002091D01*
X008196Y002116D01*
X008269Y002153D01*
X008336Y002201D01*
X008393Y002259D01*
X008442Y002325D01*
X008479Y002398D01*
X008504Y002476D01*
X008515Y002548D01*
X008047Y002548D01*
X008047Y002575D02*
X008530Y002575D01*
X008530Y002477D02*
X008504Y002477D01*
X008530Y002378D02*
X008469Y002378D01*
X008409Y002280D02*
X008530Y002280D01*
X008530Y002181D02*
X008308Y002181D01*
X008530Y002083D02*
X008069Y002083D01*
X008047Y002083D02*
X007947Y002083D01*
X007924Y002083D02*
X007069Y002083D01*
X007047Y002083D02*
X006947Y002083D01*
X006924Y002083D02*
X005420Y002083D01*
X005519Y002181D02*
X006685Y002181D01*
X006585Y002280D02*
X005573Y002280D01*
X005613Y002378D02*
X006525Y002378D01*
X006490Y002477D02*
X005620Y002477D01*
X005842Y001196D02*
X008530Y001196D01*
X008505Y001098D02*
X005895Y001098D01*
X005950Y000999D02*
X008450Y000999D01*
X008366Y000901D02*
X006034Y000901D01*
X006121Y000802D02*
X008279Y000802D01*
X008191Y000704D02*
X006209Y000704D01*
X006345Y000605D02*
X008055Y000605D01*
X007900Y000507D02*
X006500Y000507D01*
X006737Y000408D02*
X007663Y000408D01*
X007685Y002181D02*
X007308Y002181D01*
X007409Y002280D02*
X007585Y002280D01*
X007525Y002378D02*
X007469Y002378D01*
X007497Y002742D02*
X007479Y002797D01*
X007442Y002870D01*
X007393Y002937D01*
X007336Y002994D01*
X007269Y003043D01*
X007196Y003080D01*
X007145Y003096D01*
X007291Y003157D01*
X007422Y003288D01*
X007571Y003288D01*
X007702Y003157D01*
X007849Y003096D01*
X007797Y003080D01*
X007724Y003043D01*
X007658Y002994D01*
X007600Y002937D01*
X007552Y002870D01*
X007515Y002797D01*
X007497Y002742D01*
X007487Y002772D02*
X007507Y002772D01*
X007552Y002871D02*
X007441Y002871D01*
X007361Y002969D02*
X007633Y002969D01*
X007774Y003068D02*
X007220Y003068D01*
X007301Y003166D02*
X007693Y003166D01*
X007594Y003265D02*
X007399Y003265D01*
X007376Y003954D02*
X007618Y003954D01*
X007737Y004053D02*
X007257Y004053D01*
X007707Y004250D02*
X008530Y004250D01*
X008530Y004348D02*
X007832Y004348D01*
X007931Y004447D02*
X008530Y004447D01*
X008530Y004545D02*
X008029Y004545D01*
X008128Y004644D02*
X008530Y004644D01*
X008530Y004742D02*
X008169Y004742D01*
X008170Y004841D02*
X008530Y004841D01*
X008530Y004939D02*
X008170Y004939D01*
X008170Y005038D02*
X008530Y005038D01*
X008530Y005136D02*
X008450Y005136D01*
X008520Y005235D02*
X008530Y005235D01*
X008520Y005333D02*
X008530Y005333D01*
X008520Y005432D02*
X008530Y005432D01*
X008520Y005530D02*
X008530Y005530D01*
X008520Y005629D02*
X008530Y005629D01*
X008520Y005727D02*
X008530Y005727D01*
X008520Y005826D02*
X008530Y005826D01*
X008520Y005924D02*
X008530Y005924D01*
X008520Y006023D02*
X008530Y006023D01*
X008520Y006121D02*
X008530Y006121D01*
X008520Y006220D02*
X008530Y006220D01*
X008520Y006318D02*
X008530Y006318D01*
X008520Y006417D02*
X008530Y006417D01*
X008520Y006515D02*
X008530Y006515D01*
X008520Y006614D02*
X008530Y006614D01*
X008520Y006712D02*
X008530Y006712D01*
X008520Y006811D02*
X008530Y006811D01*
X008520Y006909D02*
X008530Y006909D01*
X008520Y007008D02*
X008530Y007008D01*
X008520Y007106D02*
X008530Y007106D01*
X008520Y007205D02*
X008530Y007205D01*
X008530Y007303D02*
X008506Y007303D01*
X008530Y007402D02*
X008407Y007402D01*
X008530Y007500D02*
X007421Y007500D01*
X007432Y007511D02*
X007432Y007686D01*
X007518Y007772D01*
X007594Y007848D01*
X007635Y007947D01*
X007635Y009251D01*
X007644Y009251D01*
X007700Y009307D01*
X007726Y009281D01*
X007760Y009261D01*
X007798Y009251D01*
X007986Y009251D01*
X007986Y009549D01*
X008083Y009549D01*
X008083Y009251D01*
X008271Y009251D01*
X008309Y009261D01*
X008343Y009281D01*
X008371Y009309D01*
X008391Y009343D01*
X008401Y009381D01*
X008401Y009549D01*
X008083Y009549D01*
X008083Y009646D01*
X008401Y009646D01*
X008401Y009814D01*
X008391Y009853D01*
X008371Y009887D01*
X008343Y009915D01*
X008309Y009934D01*
X008271Y009945D01*
X008083Y009945D01*
X008083Y009646D01*
X007986Y009646D01*
X007986Y009945D01*
X007798Y009945D01*
X007760Y009934D01*
X007726Y009915D01*
X007700Y009889D01*
X007675Y009913D01*
X007675Y010594D01*
X007628Y010708D01*
X007541Y010795D01*
X007197Y011140D01*
X007197Y011823D01*
X007273Y011899D01*
X007273Y012496D01*
X007197Y012572D01*
X007197Y012678D01*
X007691Y012678D01*
X007820Y012807D01*
X007820Y014721D01*
X007845Y014707D01*
X007883Y014697D01*
X008052Y014697D01*
X008052Y015015D01*
X008148Y015015D01*
X008148Y014697D01*
X008317Y014697D01*
X008355Y014707D01*
X008389Y014727D01*
X008417Y014755D01*
X008437Y014789D01*
X008530Y014789D01*
X008447Y014827D02*
X008447Y015015D01*
X008148Y015015D01*
X008148Y015112D01*
X008447Y015112D01*
X008447Y015299D01*
X008437Y015338D01*
X008417Y015372D01*
X008391Y015398D01*
X008447Y015454D01*
X008447Y016011D01*
X008410Y016048D01*
X008410Y016348D01*
X008447Y016385D01*
X008447Y016942D01*
X008391Y016998D01*
X008447Y017054D01*
X008447Y017611D01*
X008359Y017699D01*
X007841Y017699D01*
X007784Y017642D01*
X007766Y017642D01*
X007691Y017718D01*
X005810Y017718D01*
X005810Y017936D01*
X005890Y018016D01*
X005890Y019020D01*
X005810Y019100D01*
X005810Y021349D01*
X005824Y021335D01*
X006328Y020831D01*
X006442Y020784D01*
X006571Y020784D01*
X006702Y020653D01*
X006849Y020592D01*
X006797Y020576D01*
X006724Y020539D01*
X006658Y020491D01*
X006600Y020433D01*
X006552Y020366D01*
X006515Y020294D01*
X006490Y020216D01*
X006478Y020144D01*
X006947Y020144D01*
X006947Y020044D01*
X007047Y020044D01*
X007047Y020144D01*
X007478Y020144D01*
X007947Y020144D01*
X007947Y020044D01*
X008047Y020044D01*
X008047Y020144D01*
X008515Y020144D01*
X008504Y020216D01*
X008479Y020294D01*
X008442Y020366D01*
X008393Y020433D01*
X008336Y020491D01*
X008269Y020539D01*
X008196Y020576D01*
X008145Y020592D01*
X008291Y020653D01*
X008438Y020799D01*
X008517Y020990D01*
X008517Y021197D01*
X008438Y021388D01*
X008291Y021535D01*
X008100Y021614D01*
X007893Y021614D01*
X007702Y021535D01*
X007578Y021411D01*
X007497Y021412D01*
X007416Y021411D01*
X007291Y021535D01*
X007100Y021614D01*
X006893Y021614D01*
X006702Y021535D01*
X006602Y021434D01*
X006310Y021726D01*
X006310Y023360D01*
X006263Y023473D01*
X006248Y023488D01*
X006584Y023488D01*
X006702Y023370D01*
X006849Y023309D01*
X006797Y023292D01*
X006724Y023255D01*
X006658Y023207D01*
X006600Y023149D01*
X006552Y023083D01*
X006515Y023010D01*
X006490Y022932D01*
X006478Y022860D01*
X006947Y022860D01*
X006947Y022760D01*
X007047Y022760D01*
X007047Y022292D01*
X007119Y022303D01*
X007196Y022329D01*
X007269Y022366D01*
X007336Y022414D01*
X007393Y022472D01*
X007442Y022538D01*
X007479Y022611D01*
X007497Y022667D01*
X007515Y022611D01*
X007552Y022538D01*
X007600Y022472D01*
X007658Y022414D01*
X007724Y022366D01*
X007797Y022329D01*
X007875Y022303D01*
X007947Y022292D01*
X007947Y022760D01*
X008047Y022760D01*
X008047Y022292D01*
X008119Y022303D01*
X008196Y022329D01*
X008269Y022366D01*
X008336Y022414D01*
X008393Y022472D01*
X008442Y022538D01*
X008479Y022611D01*
X008504Y022689D01*
X008515Y022760D01*
X008047Y022760D01*
X008047Y022860D01*
X008515Y022860D01*
X008504Y022932D01*
X008479Y023010D01*
X008442Y023083D01*
X008393Y023149D01*
X008336Y023207D01*
X008269Y023255D01*
X008196Y023292D01*
X008145Y023309D01*
X008291Y023370D01*
X008438Y023516D01*
X008517Y023707D01*
X008517Y023914D01*
X008438Y024105D01*
X008291Y024251D01*
X008100Y024330D01*
X007893Y024330D01*
X007702Y024251D01*
X007571Y024120D01*
X007422Y024120D01*
X007291Y024251D01*
X007100Y024330D01*
X006893Y024330D01*
X006702Y024251D01*
X006559Y024108D01*
X006038Y024108D01*
X005924Y024061D01*
X005837Y023973D01*
X005672Y023808D01*
X004728Y023808D01*
X004437Y024099D01*
X004541Y024203D01*
X004600Y024346D01*
X004659Y024203D01*
X004805Y024057D01*
X004997Y023978D01*
X005203Y023978D01*
X005395Y024057D01*
X005541Y024203D01*
X005620Y024394D01*
X005620Y024601D01*
X005541Y024792D01*
X005395Y024939D01*
X005203Y025018D01*
X004997Y025018D01*
X004805Y024939D01*
X004659Y024792D01*
X004600Y024650D01*
X004541Y024792D01*
X004395Y024939D01*
X004203Y025018D01*
X003997Y025018D01*
X003805Y024939D01*
X003659Y024792D01*
X003600Y024650D01*
X003541Y024792D01*
X003395Y024939D01*
X003203Y025018D01*
X002997Y025018D01*
X002805Y024939D01*
X002659Y024792D01*
X002580Y024601D01*
X002580Y024394D01*
X002659Y024203D01*
X002790Y024072D01*
X002790Y023736D01*
X002837Y023622D01*
X002924Y023535D01*
X003724Y022735D01*
X003838Y022688D01*
X004972Y022688D01*
X005190Y022469D01*
X005190Y019100D01*
X005110Y019020D01*
X005110Y018016D01*
X005190Y017936D01*
X005190Y017718D01*
X003309Y017718D01*
X003225Y017633D01*
X003210Y017648D01*
X003210Y017969D01*
X003448Y018208D01*
X004137Y018208D01*
X004137Y017935D01*
X004225Y017847D01*
X004979Y017847D01*
X005067Y017935D01*
X005067Y019240D01*
X004979Y019328D01*
X004910Y019328D01*
X004910Y019655D01*
X004952Y019655D01*
X005039Y019742D01*
X005039Y020564D01*
X004952Y020651D01*
X004248Y020651D01*
X004161Y020564D01*
X004161Y019742D01*
X004248Y019655D01*
X004290Y019655D01*
X004290Y019328D01*
X004225Y019328D01*
X004137Y019240D01*
X004137Y018828D01*
X002470Y018828D01*
X002470Y018926D02*
X004137Y018926D01*
X004137Y018828D02*
X003258Y018828D01*
X003144Y018781D01*
X002724Y018361D01*
X002637Y018273D01*
X002590Y018160D01*
X002590Y017648D01*
X002553Y017611D01*
X002553Y017054D01*
X002609Y016998D01*
X002553Y016942D01*
X002553Y016385D01*
X002590Y016348D01*
X002590Y016048D01*
X002553Y016011D01*
X002553Y015454D01*
X002609Y015398D01*
X002583Y015372D01*
X002563Y015338D01*
X002553Y015299D01*
X002553Y015112D01*
X002852Y015112D01*
X002852Y015015D01*
X002948Y015015D01*
X002948Y014697D01*
X003117Y014697D01*
X003155Y014707D01*
X003180Y014721D01*
X003180Y012807D01*
X003309Y012678D01*
X006577Y012678D01*
X006577Y012572D01*
X006500Y012496D01*
X006500Y011899D01*
X006577Y011823D01*
X006577Y010950D01*
X006624Y010836D01*
X007055Y010404D01*
X007055Y009913D01*
X006999Y009857D01*
X006999Y009339D01*
X007079Y009259D01*
X006197Y008377D01*
X006156Y008278D01*
X006156Y007756D01*
X006168Y007728D01*
X006168Y007511D01*
X006256Y007423D01*
X006596Y007423D01*
X006617Y007444D01*
X006634Y007434D01*
X006672Y007423D01*
X006796Y007423D01*
X006796Y007806D01*
X006804Y007806D01*
X006804Y007423D01*
X006928Y007423D01*
X006966Y007434D01*
X006983Y007444D01*
X007004Y007423D01*
X007344Y007423D01*
X007432Y007511D01*
X007432Y007599D02*
X008530Y007599D01*
X008530Y007697D02*
X007444Y007697D01*
X007542Y007796D02*
X008530Y007796D01*
X008530Y007894D02*
X007613Y007894D01*
X007635Y007993D02*
X008530Y007993D01*
X008530Y008091D02*
X007635Y008091D01*
X007635Y008190D02*
X008530Y008190D01*
X008530Y008288D02*
X007635Y008288D01*
X007635Y008387D02*
X008530Y008387D01*
X008530Y008485D02*
X007635Y008485D01*
X007635Y008584D02*
X008530Y008584D01*
X008530Y008682D02*
X007635Y008682D01*
X007635Y008781D02*
X008530Y008781D01*
X008530Y008879D02*
X007635Y008879D01*
X007635Y008978D02*
X008530Y008978D01*
X008530Y009076D02*
X007635Y009076D01*
X007635Y009175D02*
X008530Y009175D01*
X008530Y009273D02*
X008330Y009273D01*
X008399Y009372D02*
X008530Y009372D01*
X008530Y009470D02*
X008401Y009470D01*
X008530Y009569D02*
X008083Y009569D01*
X008083Y009667D02*
X007986Y009667D01*
X007986Y009766D02*
X008083Y009766D01*
X008083Y009864D02*
X007986Y009864D01*
X007675Y009963D02*
X008530Y009963D01*
X008530Y010061D02*
X007675Y010061D01*
X007675Y010160D02*
X008530Y010160D01*
X008530Y010258D02*
X007675Y010258D01*
X007675Y010357D02*
X008530Y010357D01*
X008530Y010455D02*
X007675Y010455D01*
X007675Y010554D02*
X007784Y010554D01*
X007783Y010555D02*
X007811Y010527D01*
X007845Y010507D01*
X007883Y010497D01*
X008052Y010497D01*
X008052Y010815D01*
X008148Y010815D01*
X008148Y010497D01*
X008317Y010497D01*
X008355Y010507D01*
X008389Y010527D01*
X008417Y010555D01*
X008437Y010589D01*
X008447Y010627D01*
X008447Y010815D01*
X008148Y010815D01*
X008148Y010912D01*
X008447Y010912D01*
X008447Y011099D01*
X008437Y011138D01*
X008417Y011172D01*
X008391Y011198D01*
X008447Y011254D01*
X008447Y011811D01*
X008410Y011848D01*
X008410Y011873D01*
X008363Y011987D01*
X008276Y012074D01*
X008100Y012250D01*
X008100Y012496D01*
X008012Y012584D01*
X007415Y012584D01*
X007327Y012496D01*
X007327Y011899D01*
X007415Y011812D01*
X007661Y011812D01*
X007753Y011720D01*
X007753Y011254D01*
X007809Y011198D01*
X007783Y011172D01*
X007763Y011138D01*
X007753Y011099D01*
X007753Y010912D01*
X008052Y010912D01*
X008052Y010815D01*
X007753Y010815D01*
X007753Y010627D01*
X007763Y010589D01*
X007783Y010555D01*
X007753Y010652D02*
X007651Y010652D01*
X007585Y010751D02*
X007753Y010751D01*
X007753Y010948D02*
X007388Y010948D01*
X007290Y011046D02*
X007753Y011046D01*
X007768Y011145D02*
X007197Y011145D01*
X007197Y011243D02*
X007764Y011243D01*
X007753Y011342D02*
X007197Y011342D01*
X007197Y011440D02*
X007753Y011440D01*
X007753Y011539D02*
X007197Y011539D01*
X007197Y011637D02*
X007753Y011637D01*
X007737Y011736D02*
X007197Y011736D01*
X007208Y011834D02*
X007392Y011834D01*
X007327Y011933D02*
X007273Y011933D01*
X007273Y012031D02*
X007327Y012031D01*
X007327Y012130D02*
X007273Y012130D01*
X007273Y012228D02*
X007327Y012228D01*
X007327Y012327D02*
X007273Y012327D01*
X007273Y012425D02*
X007327Y012425D01*
X007355Y012524D02*
X007245Y012524D01*
X007197Y012622D02*
X008530Y012622D01*
X008530Y012524D02*
X008072Y012524D01*
X008100Y012425D02*
X008530Y012425D01*
X008530Y012327D02*
X008100Y012327D01*
X008121Y012228D02*
X008530Y012228D01*
X008530Y012130D02*
X008220Y012130D01*
X008318Y012031D02*
X008530Y012031D01*
X008530Y011933D02*
X008385Y011933D01*
X008424Y011834D02*
X008530Y011834D01*
X008530Y011736D02*
X008447Y011736D01*
X008447Y011637D02*
X008530Y011637D01*
X008530Y011539D02*
X008447Y011539D01*
X008447Y011440D02*
X008530Y011440D01*
X008530Y011342D02*
X008447Y011342D01*
X008436Y011243D02*
X008530Y011243D01*
X008530Y011145D02*
X008432Y011145D01*
X008447Y011046D02*
X008530Y011046D01*
X008530Y010948D02*
X008447Y010948D01*
X008530Y010849D02*
X008148Y010849D01*
X008052Y010849D02*
X007487Y010849D01*
X008052Y010751D02*
X008148Y010751D01*
X008148Y010652D02*
X008052Y010652D01*
X008052Y010554D02*
X008148Y010554D01*
X008416Y010554D02*
X008530Y010554D01*
X008530Y010652D02*
X008447Y010652D01*
X008447Y010751D02*
X008530Y010751D01*
X008530Y009864D02*
X008384Y009864D01*
X008401Y009766D02*
X008530Y009766D01*
X008530Y009667D02*
X008401Y009667D01*
X008083Y009470D02*
X007986Y009470D01*
X007986Y009372D02*
X008083Y009372D01*
X008083Y009273D02*
X007986Y009273D01*
X007739Y009273D02*
X007666Y009273D01*
X007064Y009273D02*
X006483Y009273D01*
X006460Y009250D02*
X006741Y009531D01*
X006894Y009899D01*
X006894Y010297D01*
X006741Y010664D01*
X006460Y010946D01*
X006093Y011098D01*
X005695Y011098D01*
X005327Y010946D01*
X005046Y010664D01*
X004894Y010297D01*
X004894Y009899D01*
X005046Y009531D01*
X005327Y009250D01*
X005695Y009098D01*
X006093Y009098D01*
X006460Y009250D01*
X006582Y009372D02*
X006999Y009372D01*
X006999Y009470D02*
X006680Y009470D01*
X006757Y009569D02*
X006999Y009569D01*
X006999Y009667D02*
X006798Y009667D01*
X006839Y009766D02*
X006999Y009766D01*
X007006Y009864D02*
X006879Y009864D01*
X006894Y009963D02*
X007055Y009963D01*
X007055Y010061D02*
X006894Y010061D01*
X006894Y010160D02*
X007055Y010160D01*
X007055Y010258D02*
X006894Y010258D01*
X006869Y010357D02*
X007055Y010357D01*
X007004Y010455D02*
X006828Y010455D01*
X006787Y010554D02*
X006906Y010554D01*
X006807Y010652D02*
X006746Y010652D01*
X006709Y010751D02*
X006655Y010751D01*
X006618Y010849D02*
X006556Y010849D01*
X006577Y010948D02*
X006455Y010948D01*
X006577Y011046D02*
X006217Y011046D01*
X006577Y011145D02*
X002470Y011145D01*
X002470Y011243D02*
X006577Y011243D01*
X006577Y011342D02*
X002470Y011342D01*
X002470Y011440D02*
X006577Y011440D01*
X006577Y011539D02*
X002470Y011539D01*
X002470Y011637D02*
X006577Y011637D01*
X006577Y011736D02*
X002470Y011736D01*
X002470Y011834D02*
X006566Y011834D01*
X006500Y011933D02*
X002470Y011933D01*
X002470Y012031D02*
X006500Y012031D01*
X006500Y012130D02*
X002470Y012130D01*
X002470Y012228D02*
X006500Y012228D01*
X006500Y012327D02*
X002470Y012327D01*
X002470Y012425D02*
X006500Y012425D01*
X006528Y012524D02*
X002470Y012524D01*
X002470Y012622D02*
X006577Y012622D01*
X007600Y012898D02*
X003400Y012898D01*
X003400Y017498D01*
X007600Y017498D01*
X007600Y012898D01*
X007600Y012918D02*
X003400Y012918D01*
X003400Y013016D02*
X007600Y013016D01*
X007600Y013115D02*
X003400Y013115D01*
X003400Y013213D02*
X007600Y013213D01*
X007600Y013312D02*
X003400Y013312D01*
X003400Y013410D02*
X007600Y013410D01*
X007600Y013509D02*
X003400Y013509D01*
X003400Y013607D02*
X007600Y013607D01*
X007600Y013706D02*
X003400Y013706D01*
X003400Y013804D02*
X007600Y013804D01*
X007600Y013903D02*
X003400Y013903D01*
X003400Y014001D02*
X007600Y014001D01*
X007600Y014100D02*
X003400Y014100D01*
X003400Y014198D02*
X007600Y014198D01*
X007600Y014297D02*
X003400Y014297D01*
X003400Y014395D02*
X007600Y014395D01*
X007600Y014494D02*
X003400Y014494D01*
X003400Y014592D02*
X007600Y014592D01*
X007600Y014691D02*
X003400Y014691D01*
X003400Y014789D02*
X007600Y014789D01*
X007600Y014888D02*
X003400Y014888D01*
X003400Y014986D02*
X007600Y014986D01*
X007600Y015085D02*
X003400Y015085D01*
X003400Y015183D02*
X007600Y015183D01*
X007600Y015282D02*
X003400Y015282D01*
X003400Y015380D02*
X007600Y015380D01*
X007600Y015479D02*
X006283Y015479D01*
X006279Y015475D02*
X006379Y015574D01*
X006379Y016581D01*
X006279Y016681D01*
X004721Y016681D01*
X004621Y016581D01*
X004621Y015574D01*
X004721Y015475D01*
X006279Y015475D01*
X006379Y015577D02*
X007600Y015577D01*
X007600Y015676D02*
X006379Y015676D01*
X006379Y015774D02*
X007600Y015774D01*
X007600Y015873D02*
X006379Y015873D01*
X006379Y015971D02*
X007600Y015971D01*
X007600Y016070D02*
X006379Y016070D01*
X006379Y016168D02*
X007600Y016168D01*
X007600Y016267D02*
X006379Y016267D01*
X006379Y016365D02*
X007600Y016365D01*
X007600Y016464D02*
X006379Y016464D01*
X006379Y016562D02*
X007600Y016562D01*
X007600Y016661D02*
X006299Y016661D01*
X006348Y017847D02*
X006063Y017847D01*
X006025Y017857D01*
X005991Y017877D01*
X005963Y017905D01*
X005943Y017939D01*
X005933Y017977D01*
X005933Y018538D01*
X006348Y018538D01*
X006348Y018568D01*
X006020Y018568D01*
X006020Y018638D01*
X005933Y018638D01*
X005933Y019198D01*
X005943Y019236D01*
X005963Y019270D01*
X005991Y019298D01*
X006025Y019318D01*
X006063Y019328D01*
X006348Y019328D01*
X006348Y019108D01*
X006360Y019108D01*
X006360Y018638D01*
X006448Y018638D01*
X006448Y019328D01*
X006732Y019328D01*
X006770Y019318D01*
X006805Y019298D01*
X006833Y019270D01*
X006852Y019236D01*
X006863Y019198D01*
X006863Y018638D01*
X006800Y018638D01*
X006800Y018568D01*
X006460Y018568D01*
X006460Y018538D01*
X006863Y018538D01*
X006863Y017977D01*
X006852Y017939D01*
X006833Y017905D01*
X006805Y017877D01*
X006770Y017857D01*
X006732Y017847D01*
X006448Y017847D01*
X006448Y018468D01*
X006360Y018468D01*
X006360Y017928D01*
X006348Y017928D01*
X006348Y017847D01*
X006360Y017941D02*
X006448Y017941D01*
X006448Y018040D02*
X006360Y018040D01*
X006360Y018138D02*
X006448Y018138D01*
X006448Y018237D02*
X006360Y018237D01*
X006360Y018335D02*
X006448Y018335D01*
X006448Y018434D02*
X006360Y018434D01*
X006360Y018729D02*
X006448Y018729D01*
X006448Y018828D02*
X006360Y018828D01*
X006360Y018926D02*
X006448Y018926D01*
X006448Y019025D02*
X006360Y019025D01*
X006348Y019123D02*
X006448Y019123D01*
X006448Y019222D02*
X006348Y019222D01*
X006348Y019320D02*
X006448Y019320D01*
X006034Y019320D02*
X005810Y019320D01*
X005810Y019222D02*
X005939Y019222D01*
X005933Y019123D02*
X005810Y019123D01*
X005885Y019025D02*
X005933Y019025D01*
X005933Y018926D02*
X005890Y018926D01*
X005890Y018828D02*
X005933Y018828D01*
X005933Y018729D02*
X005890Y018729D01*
X005890Y018631D02*
X006020Y018631D01*
X005933Y018532D02*
X005890Y018532D01*
X005890Y018434D02*
X005933Y018434D01*
X005933Y018335D02*
X005890Y018335D01*
X005890Y018237D02*
X005933Y018237D01*
X005933Y018138D02*
X005890Y018138D01*
X005890Y018040D02*
X005933Y018040D01*
X005942Y017941D02*
X005816Y017941D01*
X005810Y017843D02*
X008530Y017843D01*
X008530Y017941D02*
X006853Y017941D01*
X006863Y018040D02*
X008530Y018040D01*
X008530Y018138D02*
X006863Y018138D01*
X006863Y018237D02*
X008530Y018237D01*
X008530Y018335D02*
X006863Y018335D01*
X006863Y018434D02*
X008530Y018434D01*
X008530Y018532D02*
X006863Y018532D01*
X006800Y018631D02*
X008530Y018631D01*
X008530Y018729D02*
X006863Y018729D01*
X006863Y018828D02*
X008530Y018828D01*
X008530Y018926D02*
X006863Y018926D01*
X006863Y019025D02*
X008530Y019025D01*
X008530Y019123D02*
X006863Y019123D01*
X006856Y019222D02*
X008530Y019222D01*
X008530Y019320D02*
X006761Y019320D01*
X006875Y019587D02*
X006947Y019575D01*
X006947Y020044D01*
X006478Y020044D01*
X006490Y019972D01*
X006515Y019894D01*
X006552Y019821D01*
X006600Y019755D01*
X006658Y019697D01*
X006724Y019649D01*
X006797Y019612D01*
X006875Y019587D01*
X006947Y019616D02*
X007047Y019616D01*
X007047Y019575D02*
X007119Y019587D01*
X007196Y019612D01*
X007269Y019649D01*
X007336Y019697D01*
X007393Y019755D01*
X007442Y019821D01*
X007479Y019894D01*
X007497Y019950D01*
X007515Y019894D01*
X007552Y019821D01*
X007600Y019755D01*
X007658Y019697D01*
X007724Y019649D01*
X007797Y019612D01*
X007875Y019587D01*
X007947Y019575D01*
X007947Y020044D01*
X007047Y020044D01*
X007047Y019575D01*
X007047Y019714D02*
X006947Y019714D01*
X006947Y019813D02*
X007047Y019813D01*
X007047Y019911D02*
X006947Y019911D01*
X006947Y020010D02*
X007047Y020010D01*
X007047Y020108D02*
X007947Y020108D01*
X007947Y020010D02*
X008047Y020010D01*
X008047Y020044D02*
X008047Y019575D01*
X008119Y019587D01*
X008196Y019612D01*
X008269Y019649D01*
X008336Y019697D01*
X008393Y019755D01*
X008442Y019821D01*
X008479Y019894D01*
X008504Y019972D01*
X008515Y020044D01*
X008047Y020044D01*
X008047Y020108D02*
X008530Y020108D01*
X008530Y020010D02*
X008510Y020010D01*
X008530Y019911D02*
X008484Y019911D01*
X008530Y019813D02*
X008435Y019813D01*
X008353Y019714D02*
X008530Y019714D01*
X008530Y019616D02*
X008204Y019616D01*
X008047Y019616D02*
X007947Y019616D01*
X007947Y019714D02*
X008047Y019714D01*
X008047Y019813D02*
X007947Y019813D01*
X007947Y019911D02*
X008047Y019911D01*
X007790Y019616D02*
X007204Y019616D01*
X007353Y019714D02*
X007641Y019714D01*
X007558Y019813D02*
X007435Y019813D01*
X007484Y019911D02*
X007509Y019911D01*
X007497Y020238D02*
X007479Y020294D01*
X007442Y020366D01*
X007393Y020433D01*
X007336Y020491D01*
X007269Y020539D01*
X007196Y020576D01*
X007145Y020592D01*
X007291Y020653D01*
X007422Y020784D01*
X007571Y020784D01*
X007702Y020653D01*
X007849Y020592D01*
X007797Y020576D01*
X007724Y020539D01*
X007658Y020491D01*
X007600Y020433D01*
X007552Y020366D01*
X007515Y020294D01*
X007497Y020238D01*
X007473Y020305D02*
X007521Y020305D01*
X007579Y020404D02*
X007414Y020404D01*
X007319Y020502D02*
X007674Y020502D01*
X007828Y020601D02*
X007165Y020601D01*
X007338Y020699D02*
X007656Y020699D01*
X008165Y020601D02*
X008530Y020601D01*
X008530Y020699D02*
X008338Y020699D01*
X008436Y020798D02*
X008530Y020798D01*
X008530Y020896D02*
X008478Y020896D01*
X008517Y020995D02*
X008530Y020995D01*
X008517Y021093D02*
X008530Y021093D01*
X008517Y021192D02*
X008530Y021192D01*
X008530Y021290D02*
X008478Y021290D01*
X008437Y021389D02*
X008530Y021389D01*
X008530Y021487D02*
X008339Y021487D01*
X008168Y021586D02*
X008530Y021586D01*
X008530Y021684D02*
X006352Y021684D01*
X006310Y021783D02*
X008530Y021783D01*
X008530Y021881D02*
X006310Y021881D01*
X006310Y021980D02*
X008530Y021980D01*
X008530Y022078D02*
X006310Y022078D01*
X006310Y022177D02*
X008530Y022177D01*
X008530Y022275D02*
X006310Y022275D01*
X006310Y022374D02*
X006713Y022374D01*
X006724Y022366D02*
X006797Y022329D01*
X006875Y022303D01*
X006947Y022292D01*
X006947Y022760D01*
X006478Y022760D01*
X006490Y022689D01*
X006515Y022611D01*
X006552Y022538D01*
X006600Y022472D01*
X006658Y022414D01*
X006724Y022366D01*
X006600Y022472D02*
X006310Y022472D01*
X006310Y022571D02*
X006535Y022571D01*
X006496Y022669D02*
X006310Y022669D01*
X006310Y022768D02*
X006947Y022768D01*
X006947Y022669D02*
X007047Y022669D01*
X007047Y022760D02*
X007047Y022860D01*
X007478Y022860D01*
X007947Y022860D01*
X007947Y022760D01*
X007047Y022760D01*
X007047Y022768D02*
X007947Y022768D01*
X007947Y022669D02*
X008047Y022669D01*
X008047Y022571D02*
X007947Y022571D01*
X007947Y022472D02*
X008047Y022472D01*
X008047Y022374D02*
X007947Y022374D01*
X007713Y022374D02*
X007281Y022374D01*
X007394Y022472D02*
X007600Y022472D01*
X007535Y022571D02*
X007458Y022571D01*
X007497Y022954D02*
X007479Y023010D01*
X007442Y023083D01*
X007393Y023149D01*
X007336Y023207D01*
X007269Y023255D01*
X007196Y023292D01*
X007145Y023309D01*
X007291Y023370D01*
X007422Y023500D01*
X007571Y023500D01*
X007702Y023370D01*
X007849Y023309D01*
X007797Y023292D01*
X007724Y023255D01*
X007658Y023207D01*
X007600Y023149D01*
X007552Y023083D01*
X007515Y023010D01*
X007497Y022954D01*
X007493Y022965D02*
X007500Y022965D01*
X007542Y023063D02*
X007452Y023063D01*
X007381Y023162D02*
X007613Y023162D01*
X007735Y023260D02*
X007259Y023260D01*
X007266Y023359D02*
X007728Y023359D01*
X007615Y023457D02*
X007379Y023457D01*
X006728Y023359D02*
X006310Y023359D01*
X006310Y023260D02*
X006735Y023260D01*
X006613Y023162D02*
X006310Y023162D01*
X006310Y023063D02*
X006542Y023063D01*
X006500Y022965D02*
X006310Y022965D01*
X006310Y022866D02*
X006479Y022866D01*
X006947Y022571D02*
X007047Y022571D01*
X007047Y022472D02*
X006947Y022472D01*
X006947Y022374D02*
X007047Y022374D01*
X007168Y021586D02*
X007826Y021586D01*
X007655Y021487D02*
X007339Y021487D01*
X006826Y021586D02*
X006450Y021586D01*
X006549Y021487D02*
X006655Y021487D01*
X006165Y020995D02*
X005810Y020995D01*
X005810Y021093D02*
X006066Y021093D01*
X005968Y021192D02*
X005810Y021192D01*
X005810Y021290D02*
X005869Y021290D01*
X005810Y020896D02*
X006263Y020896D01*
X006409Y020798D02*
X005810Y020798D01*
X005810Y020699D02*
X006656Y020699D01*
X006674Y020502D02*
X005810Y020502D01*
X005810Y020404D02*
X006579Y020404D01*
X006521Y020305D02*
X005810Y020305D01*
X005810Y020207D02*
X006488Y020207D01*
X006484Y020010D02*
X005810Y020010D01*
X005810Y020108D02*
X006947Y020108D01*
X006790Y019616D02*
X005810Y019616D01*
X005810Y019714D02*
X006641Y019714D01*
X006558Y019813D02*
X005810Y019813D01*
X005810Y019911D02*
X006509Y019911D01*
X006828Y020601D02*
X005810Y020601D01*
X005190Y020601D02*
X005002Y020601D01*
X005039Y020502D02*
X005190Y020502D01*
X005190Y020404D02*
X005039Y020404D01*
X005039Y020305D02*
X005190Y020305D01*
X005190Y020207D02*
X005039Y020207D01*
X005039Y020108D02*
X005190Y020108D01*
X005190Y020010D02*
X005039Y020010D01*
X005039Y019911D02*
X005190Y019911D01*
X005190Y019813D02*
X005039Y019813D01*
X005011Y019714D02*
X005190Y019714D01*
X005190Y019616D02*
X004910Y019616D01*
X004910Y019517D02*
X005190Y019517D01*
X005190Y019419D02*
X004910Y019419D01*
X004987Y019320D02*
X005190Y019320D01*
X005190Y019222D02*
X005067Y019222D01*
X005067Y019123D02*
X005190Y019123D01*
X005115Y019025D02*
X005067Y019025D01*
X005067Y018926D02*
X005110Y018926D01*
X005110Y018828D02*
X005067Y018828D01*
X005067Y018729D02*
X005110Y018729D01*
X005110Y018631D02*
X005067Y018631D01*
X005067Y018532D02*
X005110Y018532D01*
X005110Y018434D02*
X005067Y018434D01*
X005067Y018335D02*
X005110Y018335D01*
X005110Y018237D02*
X005067Y018237D01*
X005067Y018138D02*
X005110Y018138D01*
X005110Y018040D02*
X005067Y018040D01*
X005067Y017941D02*
X005184Y017941D01*
X005190Y017843D02*
X003210Y017843D01*
X003210Y017941D02*
X004137Y017941D01*
X004137Y018040D02*
X003280Y018040D01*
X003379Y018138D02*
X004137Y018138D01*
X004137Y019025D02*
X002470Y019025D01*
X002470Y019123D02*
X004137Y019123D01*
X004137Y019222D02*
X003410Y019222D01*
X003495Y019257D02*
X003303Y019178D01*
X003097Y019178D01*
X002905Y019257D01*
X002759Y019403D01*
X002680Y019594D01*
X002680Y019801D01*
X002759Y019992D01*
X002905Y020139D01*
X003048Y020198D01*
X002905Y020257D01*
X002759Y020403D01*
X002680Y020594D01*
X002680Y020801D01*
X002759Y020992D01*
X002905Y021139D01*
X003048Y021198D01*
X002905Y021257D01*
X002759Y021403D01*
X002680Y021594D01*
X002680Y021801D01*
X002759Y021992D01*
X002905Y022139D01*
X003097Y022218D01*
X003303Y022218D01*
X003495Y022139D01*
X003641Y021992D01*
X003720Y021801D01*
X003720Y021656D01*
X004161Y022097D01*
X004161Y022453D01*
X004248Y022541D01*
X004952Y022541D01*
X005039Y022453D01*
X005039Y021632D01*
X004952Y021544D01*
X004485Y021544D01*
X003720Y020779D01*
X003720Y020594D01*
X003641Y020403D01*
X003495Y020257D01*
X003352Y020198D01*
X003495Y020139D01*
X003641Y019992D01*
X003720Y019801D01*
X003720Y019594D01*
X003641Y019403D01*
X003495Y019257D01*
X003558Y019320D02*
X004218Y019320D01*
X004290Y019419D02*
X003647Y019419D01*
X003688Y019517D02*
X004290Y019517D01*
X004290Y019616D02*
X003720Y019616D01*
X003720Y019714D02*
X004189Y019714D01*
X004161Y019813D02*
X003715Y019813D01*
X003674Y019911D02*
X004161Y019911D01*
X004161Y020010D02*
X003623Y020010D01*
X003525Y020108D02*
X004161Y020108D01*
X004161Y020207D02*
X003374Y020207D01*
X003543Y020305D02*
X004161Y020305D01*
X004161Y020404D02*
X003641Y020404D01*
X003682Y020502D02*
X004161Y020502D01*
X004198Y020601D02*
X003720Y020601D01*
X003720Y020699D02*
X005190Y020699D01*
X005190Y020798D02*
X003738Y020798D01*
X003837Y020896D02*
X005190Y020896D01*
X005190Y020995D02*
X003935Y020995D01*
X004034Y021093D02*
X005190Y021093D01*
X005190Y021192D02*
X004132Y021192D01*
X004231Y021290D02*
X005190Y021290D01*
X005190Y021389D02*
X004329Y021389D01*
X004428Y021487D02*
X005190Y021487D01*
X005190Y021586D02*
X004993Y021586D01*
X005039Y021684D02*
X005190Y021684D01*
X005190Y021783D02*
X005039Y021783D01*
X005039Y021881D02*
X005190Y021881D01*
X005190Y021980D02*
X005039Y021980D01*
X005039Y022078D02*
X005190Y022078D01*
X005190Y022177D02*
X005039Y022177D01*
X005039Y022275D02*
X005190Y022275D01*
X005190Y022374D02*
X005039Y022374D01*
X005020Y022472D02*
X005187Y022472D01*
X005089Y022571D02*
X002470Y022571D01*
X002470Y022669D02*
X004990Y022669D01*
X004180Y022472D02*
X002470Y022472D01*
X002470Y022374D02*
X004161Y022374D01*
X004161Y022275D02*
X002470Y022275D01*
X002470Y022177D02*
X002998Y022177D01*
X002845Y022078D02*
X002470Y022078D01*
X002470Y021980D02*
X002754Y021980D01*
X002713Y021881D02*
X002470Y021881D01*
X002470Y021783D02*
X002680Y021783D01*
X002680Y021684D02*
X002470Y021684D01*
X002470Y021586D02*
X002684Y021586D01*
X002724Y021487D02*
X002470Y021487D01*
X002470Y021389D02*
X002774Y021389D01*
X002872Y021290D02*
X002470Y021290D01*
X002470Y021192D02*
X003034Y021192D01*
X002860Y021093D02*
X002470Y021093D01*
X002470Y020995D02*
X002762Y020995D01*
X002719Y020896D02*
X002470Y020896D01*
X002470Y020798D02*
X002680Y020798D01*
X002680Y020699D02*
X002470Y020699D01*
X002470Y020601D02*
X002680Y020601D01*
X002718Y020502D02*
X002470Y020502D01*
X002470Y020404D02*
X002759Y020404D01*
X002857Y020305D02*
X002470Y020305D01*
X002470Y020207D02*
X003026Y020207D01*
X002875Y020108D02*
X002470Y020108D01*
X002470Y020010D02*
X002777Y020010D01*
X002726Y019911D02*
X002470Y019911D01*
X002470Y019813D02*
X002685Y019813D01*
X002680Y019714D02*
X002470Y019714D01*
X002470Y019616D02*
X002680Y019616D01*
X002712Y019517D02*
X002470Y019517D01*
X002470Y019419D02*
X002753Y019419D01*
X002842Y019320D02*
X002470Y019320D01*
X002470Y019222D02*
X002990Y019222D01*
X003093Y018729D02*
X002470Y018729D01*
X002470Y018631D02*
X002995Y018631D01*
X002896Y018532D02*
X002470Y018532D01*
X002470Y018434D02*
X002798Y018434D01*
X002699Y018335D02*
X002470Y018335D01*
X002470Y018237D02*
X002622Y018237D01*
X002590Y018138D02*
X002470Y018138D01*
X002470Y018040D02*
X002590Y018040D01*
X002590Y017941D02*
X002470Y017941D01*
X002470Y017843D02*
X002590Y017843D01*
X002590Y017744D02*
X002470Y017744D01*
X002470Y017646D02*
X002588Y017646D01*
X002553Y017547D02*
X002470Y017547D01*
X002470Y017449D02*
X002553Y017449D01*
X002553Y017350D02*
X002470Y017350D01*
X002470Y017252D02*
X002553Y017252D01*
X002553Y017153D02*
X002470Y017153D01*
X002470Y017055D02*
X002553Y017055D01*
X002568Y016956D02*
X002470Y016956D01*
X002470Y016858D02*
X002553Y016858D01*
X002553Y016759D02*
X002470Y016759D01*
X002470Y016661D02*
X002553Y016661D01*
X002553Y016562D02*
X002470Y016562D01*
X002470Y016464D02*
X002553Y016464D01*
X002572Y016365D02*
X002470Y016365D01*
X002470Y016267D02*
X002590Y016267D01*
X002590Y016168D02*
X002470Y016168D01*
X002470Y016070D02*
X002590Y016070D01*
X002553Y015971D02*
X002470Y015971D01*
X002470Y015873D02*
X002553Y015873D01*
X002553Y015774D02*
X002470Y015774D01*
X002470Y015676D02*
X002553Y015676D01*
X002553Y015577D02*
X002470Y015577D01*
X002470Y015479D02*
X002553Y015479D01*
X002592Y015380D02*
X002470Y015380D01*
X002470Y015282D02*
X002553Y015282D01*
X002553Y015183D02*
X002470Y015183D01*
X002470Y015085D02*
X002852Y015085D01*
X002852Y015015D02*
X002553Y015015D01*
X002553Y014827D01*
X002563Y014789D01*
X002470Y014789D01*
X002563Y014789D02*
X002583Y014755D01*
X002611Y014727D01*
X002645Y014707D01*
X002683Y014697D01*
X002852Y014697D01*
X002852Y015015D01*
X002852Y014986D02*
X002948Y014986D01*
X002948Y014888D02*
X002852Y014888D01*
X002852Y014789D02*
X002948Y014789D01*
X003180Y014691D02*
X002470Y014691D01*
X002470Y014592D02*
X003180Y014592D01*
X003180Y014494D02*
X002470Y014494D01*
X002470Y014395D02*
X003180Y014395D01*
X003180Y014297D02*
X002470Y014297D01*
X002470Y014198D02*
X003180Y014198D01*
X003180Y014100D02*
X002470Y014100D01*
X002470Y014001D02*
X003180Y014001D01*
X003180Y013903D02*
X002470Y013903D01*
X002470Y013804D02*
X003180Y013804D01*
X003180Y013706D02*
X002470Y013706D01*
X002470Y013607D02*
X003180Y013607D01*
X003180Y013509D02*
X002470Y013509D01*
X002470Y013410D02*
X003180Y013410D01*
X003180Y013312D02*
X002470Y013312D01*
X002470Y013213D02*
X003180Y013213D01*
X003180Y013115D02*
X002470Y013115D01*
X002470Y013016D02*
X003180Y013016D01*
X003180Y012918D02*
X002470Y012918D01*
X002470Y012819D02*
X003180Y012819D01*
X003266Y012721D02*
X002470Y012721D01*
X002470Y011046D02*
X003214Y011046D01*
X003254Y011060D02*
X003148Y011023D01*
X003047Y010974D01*
X002952Y010915D01*
X002864Y010845D01*
X002785Y010765D01*
X002715Y010677D01*
X002655Y010582D01*
X002606Y010481D01*
X002569Y010375D01*
X002544Y010266D01*
X002531Y010154D01*
X002531Y010148D01*
X003481Y010148D01*
X003481Y010048D01*
X002531Y010048D01*
X002531Y010042D01*
X002544Y009930D01*
X002569Y009821D01*
X002606Y009715D01*
X002655Y009613D01*
X002715Y009518D01*
X002785Y009430D01*
X002864Y009351D01*
X002952Y009281D01*
X003047Y009221D01*
X003148Y009173D01*
X003254Y009135D01*
X003364Y009110D01*
X003475Y009098D01*
X003481Y009098D01*
X003481Y010048D01*
X003581Y010048D01*
X003581Y009098D01*
X003588Y009098D01*
X003699Y009110D01*
X003809Y009135D01*
X003915Y009173D01*
X004016Y009221D01*
X004111Y009281D01*
X004199Y009351D01*
X004278Y009430D01*
X004348Y009518D01*
X004408Y009613D01*
X004457Y009715D01*
X004494Y009821D01*
X004519Y009930D01*
X004531Y010042D01*
X004531Y010048D01*
X003582Y010048D01*
X003582Y010148D01*
X004531Y010148D01*
X004531Y010154D01*
X004519Y010266D01*
X004494Y010375D01*
X004457Y010481D01*
X004408Y010582D01*
X004348Y010677D01*
X004278Y010765D01*
X004199Y010845D01*
X004111Y010915D01*
X004016Y010974D01*
X003915Y011023D01*
X003809Y011060D01*
X003699Y011085D01*
X003588Y011098D01*
X003581Y011098D01*
X003581Y010148D01*
X003481Y010148D01*
X003481Y011098D01*
X003475Y011098D01*
X003364Y011085D01*
X003254Y011060D01*
X003481Y011046D02*
X003581Y011046D01*
X003581Y010948D02*
X003481Y010948D01*
X003481Y010849D02*
X003581Y010849D01*
X003581Y010751D02*
X003481Y010751D01*
X003481Y010652D02*
X003581Y010652D01*
X003581Y010554D02*
X003481Y010554D01*
X003481Y010455D02*
X003581Y010455D01*
X003581Y010357D02*
X003481Y010357D01*
X003481Y010258D02*
X003581Y010258D01*
X003581Y010160D02*
X003481Y010160D01*
X003481Y010061D02*
X002470Y010061D01*
X002470Y009963D02*
X002540Y009963D01*
X002559Y009864D02*
X002470Y009864D01*
X002470Y009766D02*
X002588Y009766D01*
X002629Y009667D02*
X002470Y009667D01*
X002470Y009569D02*
X002683Y009569D01*
X002753Y009470D02*
X002470Y009470D01*
X002470Y009372D02*
X002843Y009372D01*
X002964Y009273D02*
X002470Y009273D01*
X002470Y009175D02*
X003143Y009175D01*
X003481Y009175D02*
X003581Y009175D01*
X003581Y009273D02*
X003481Y009273D01*
X003481Y009372D02*
X003581Y009372D01*
X003581Y009470D02*
X003481Y009470D01*
X003481Y009569D02*
X003581Y009569D01*
X003581Y009667D02*
X003481Y009667D01*
X003481Y009766D02*
X003581Y009766D01*
X003581Y009864D02*
X003481Y009864D01*
X003481Y009963D02*
X003581Y009963D01*
X003582Y010061D02*
X004894Y010061D01*
X004894Y009963D02*
X004523Y009963D01*
X004504Y009864D02*
X004908Y009864D01*
X004949Y009766D02*
X004475Y009766D01*
X004434Y009667D02*
X004990Y009667D01*
X005030Y009569D02*
X004380Y009569D01*
X004310Y009470D02*
X005107Y009470D01*
X005205Y009372D02*
X004220Y009372D01*
X004099Y009273D02*
X005304Y009273D01*
X005197Y009124D02*
X005096Y009173D01*
X004990Y009210D01*
X004880Y009235D01*
X004769Y009247D01*
X004763Y009247D01*
X004763Y008297D01*
X005713Y008297D01*
X005713Y008304D01*
X005700Y008415D01*
X005675Y008525D01*
X005638Y008631D01*
X005589Y008732D01*
X005529Y008827D01*
X005459Y008915D01*
X005380Y008994D01*
X005292Y009064D01*
X005197Y009124D01*
X005273Y009076D02*
X006897Y009076D01*
X006798Y008978D02*
X005396Y008978D01*
X005488Y008879D02*
X006700Y008879D01*
X006601Y008781D02*
X005558Y008781D01*
X005613Y008682D02*
X006503Y008682D01*
X006404Y008584D02*
X005654Y008584D01*
X005684Y008485D02*
X006306Y008485D01*
X006207Y008387D02*
X005703Y008387D01*
X005713Y008197D02*
X004763Y008197D01*
X004763Y008297D01*
X004663Y008297D01*
X004663Y008197D01*
X004763Y008197D01*
X004763Y007247D01*
X004769Y007247D01*
X004880Y007260D01*
X004990Y007285D01*
X005096Y007322D01*
X005197Y007371D01*
X005292Y007431D01*
X005380Y007501D01*
X005459Y007580D01*
X005529Y007668D01*
X005589Y007763D01*
X005638Y007864D01*
X005675Y007970D01*
X005700Y008080D01*
X005713Y008191D01*
X005713Y008197D01*
X005712Y008190D02*
X006156Y008190D01*
X006160Y008288D02*
X004763Y008288D01*
X004763Y008190D02*
X004663Y008190D01*
X004663Y008197D02*
X004663Y007247D01*
X004656Y007247D01*
X004545Y007260D01*
X004435Y007285D01*
X004329Y007322D01*
X004228Y007371D01*
X004133Y007431D01*
X004045Y007501D01*
X003966Y007580D01*
X003896Y007668D01*
X003836Y007763D01*
X003787Y007864D01*
X003750Y007970D01*
X003725Y008080D01*
X003713Y008191D01*
X003713Y008197D01*
X004663Y008197D01*
X004663Y008288D02*
X002470Y008288D01*
X002470Y008190D02*
X003713Y008190D01*
X003724Y008091D02*
X002470Y008091D01*
X002470Y007993D02*
X003745Y007993D01*
X003777Y007894D02*
X002470Y007894D01*
X002470Y007796D02*
X003820Y007796D01*
X003877Y007697D02*
X002470Y007697D01*
X002470Y007599D02*
X003951Y007599D01*
X004046Y007500D02*
X002470Y007500D01*
X002470Y007402D02*
X004179Y007402D01*
X004383Y007303D02*
X002470Y007303D01*
X002470Y007205D02*
X006796Y007205D01*
X006894Y007303D02*
X005042Y007303D01*
X005246Y007402D02*
X006993Y007402D01*
X006804Y007500D02*
X006796Y007500D01*
X006796Y007599D02*
X006804Y007599D01*
X006796Y007697D02*
X006804Y007697D01*
X006796Y007796D02*
X006804Y007796D01*
X006804Y007814D02*
X006796Y007814D01*
X006796Y008196D01*
X006780Y008196D01*
X007095Y008511D01*
X007095Y008196D01*
X007004Y008196D01*
X006983Y008176D01*
X006966Y008186D01*
X006928Y008196D01*
X006804Y008196D01*
X006804Y007814D01*
X006796Y007894D02*
X006804Y007894D01*
X006796Y007993D02*
X006804Y007993D01*
X006796Y008091D02*
X006804Y008091D01*
X006796Y008190D02*
X006804Y008190D01*
X006872Y008288D02*
X007095Y008288D01*
X007095Y008387D02*
X006971Y008387D01*
X007069Y008485D02*
X007095Y008485D01*
X006998Y008190D02*
X006951Y008190D01*
X006156Y008091D02*
X005701Y008091D01*
X005680Y007993D02*
X006156Y007993D01*
X006156Y007894D02*
X005648Y007894D01*
X005605Y007796D02*
X006156Y007796D01*
X006168Y007697D02*
X005548Y007697D01*
X005474Y007599D02*
X006168Y007599D01*
X006179Y007500D02*
X005380Y007500D01*
X004763Y007500D02*
X004663Y007500D01*
X004663Y007402D02*
X004763Y007402D01*
X004763Y007303D02*
X004663Y007303D01*
X004663Y007599D02*
X004763Y007599D01*
X004763Y007697D02*
X004663Y007697D01*
X004663Y007796D02*
X004763Y007796D01*
X004763Y007894D02*
X004663Y007894D01*
X004663Y007993D02*
X004763Y007993D01*
X004763Y008091D02*
X004663Y008091D01*
X004663Y008297D02*
X003713Y008297D01*
X003713Y008304D01*
X003725Y008415D01*
X003750Y008525D01*
X003787Y008631D01*
X003836Y008732D01*
X003896Y008827D01*
X003966Y008915D01*
X004045Y008994D01*
X004133Y009064D01*
X004228Y009124D01*
X004329Y009173D01*
X004435Y009210D01*
X004545Y009235D01*
X004656Y009247D01*
X004663Y009247D01*
X004663Y008297D01*
X004663Y008387D02*
X004763Y008387D01*
X004763Y008485D02*
X004663Y008485D01*
X004663Y008584D02*
X004763Y008584D01*
X004763Y008682D02*
X004663Y008682D01*
X004663Y008781D02*
X004763Y008781D01*
X004763Y008879D02*
X004663Y008879D01*
X004663Y008978D02*
X004763Y008978D01*
X004763Y009076D02*
X004663Y009076D01*
X004663Y009175D02*
X004763Y009175D01*
X005090Y009175D02*
X005509Y009175D01*
X004894Y010160D02*
X004531Y010160D01*
X004520Y010258D02*
X004894Y010258D01*
X004919Y010357D02*
X004498Y010357D01*
X004466Y010455D02*
X004959Y010455D01*
X005000Y010554D02*
X004422Y010554D01*
X004364Y010652D02*
X005041Y010652D01*
X005133Y010751D02*
X004290Y010751D01*
X004193Y010849D02*
X005231Y010849D01*
X005333Y010948D02*
X004058Y010948D01*
X003849Y011046D02*
X005571Y011046D01*
X006279Y009175D02*
X006995Y009175D01*
X007100Y007198D02*
X008300Y007198D01*
X008300Y005298D01*
X006800Y005298D01*
X006800Y006898D01*
X007100Y007198D01*
X007009Y007106D02*
X008300Y007106D01*
X008300Y007008D02*
X006910Y007008D01*
X006812Y006909D02*
X008300Y006909D01*
X008300Y006811D02*
X006800Y006811D01*
X006800Y006712D02*
X008300Y006712D01*
X008300Y006614D02*
X006800Y006614D01*
X006800Y006515D02*
X008300Y006515D01*
X008300Y006417D02*
X006800Y006417D01*
X006800Y006318D02*
X008300Y006318D01*
X008300Y006220D02*
X006800Y006220D01*
X006800Y006121D02*
X008300Y006121D01*
X008300Y006023D02*
X006800Y006023D01*
X006800Y005924D02*
X008300Y005924D01*
X008300Y005826D02*
X006800Y005826D01*
X006800Y005727D02*
X008300Y005727D01*
X008300Y005629D02*
X006800Y005629D01*
X006800Y005530D02*
X008300Y005530D01*
X008300Y005432D02*
X006800Y005432D01*
X006800Y005333D02*
X008300Y005333D01*
X007630Y005038D02*
X002470Y005038D01*
X002470Y005136D02*
X006650Y005136D01*
X006580Y005235D02*
X002470Y005235D01*
X002470Y005333D02*
X006015Y005333D01*
X005999Y005432D02*
X002470Y005432D01*
X002470Y005530D02*
X005999Y005530D01*
X005999Y005727D02*
X002470Y005727D01*
X002470Y005629D02*
X006317Y005629D01*
X006317Y005727D02*
X006414Y005727D01*
X006414Y005826D02*
X006317Y005826D01*
X006317Y005924D02*
X006414Y005924D01*
X006580Y006023D02*
X004194Y006023D01*
X004183Y005996D02*
X004260Y006182D01*
X004260Y006383D01*
X004183Y006568D01*
X004041Y006710D01*
X003855Y006787D01*
X002945Y006787D01*
X002759Y006710D01*
X002617Y006568D01*
X002540Y006383D01*
X002540Y006182D01*
X002617Y005996D01*
X002759Y005854D01*
X002945Y005777D01*
X003855Y005777D01*
X004041Y005854D01*
X004183Y005996D01*
X004111Y005924D02*
X006073Y005924D01*
X006002Y005826D02*
X003973Y005826D01*
X004235Y006121D02*
X006580Y006121D01*
X006580Y006220D02*
X004260Y006220D01*
X004260Y006318D02*
X006580Y006318D01*
X006238Y006417D02*
X004246Y006417D01*
X004205Y006515D02*
X006168Y006515D01*
X006168Y006614D02*
X004137Y006614D01*
X004036Y006712D02*
X006168Y006712D01*
X006168Y006811D02*
X002470Y006811D01*
X002470Y006909D02*
X006168Y006909D01*
X006168Y007008D02*
X002470Y007008D01*
X002470Y007106D02*
X006190Y007106D01*
X006662Y007106D02*
X006697Y007106D01*
X006414Y005530D02*
X006317Y005530D01*
X006317Y005432D02*
X006414Y005432D01*
X006414Y005333D02*
X006317Y005333D01*
X005735Y004151D02*
X008530Y004151D01*
X008530Y004053D02*
X008257Y004053D01*
X008376Y003954D02*
X008530Y003954D01*
X008530Y003856D02*
X008453Y003856D01*
X008494Y003757D02*
X008530Y003757D01*
X008517Y003659D02*
X008530Y003659D01*
X008517Y003560D02*
X008530Y003560D01*
X008530Y003462D02*
X008503Y003462D01*
X008530Y003363D02*
X008463Y003363D01*
X008399Y003265D02*
X008530Y003265D01*
X008530Y003166D02*
X008301Y003166D01*
X008220Y003068D02*
X008530Y003068D01*
X008530Y002969D02*
X008361Y002969D01*
X008441Y002871D02*
X008530Y002871D01*
X008530Y002772D02*
X008487Y002772D01*
X008511Y002674D02*
X008530Y002674D01*
X008047Y002378D02*
X007947Y002378D01*
X007947Y002280D02*
X008047Y002280D01*
X008047Y002181D02*
X007947Y002181D01*
X007047Y002181D02*
X006947Y002181D01*
X006947Y002280D02*
X007047Y002280D01*
X007047Y002378D02*
X006947Y002378D01*
X006737Y004053D02*
X005637Y004053D01*
X007561Y004841D02*
X002470Y004841D01*
X002470Y004939D02*
X007630Y004939D01*
X003937Y008879D02*
X002470Y008879D01*
X002470Y008781D02*
X003867Y008781D01*
X003812Y008682D02*
X002470Y008682D01*
X002470Y008584D02*
X003771Y008584D01*
X003741Y008485D02*
X002470Y008485D01*
X002470Y008387D02*
X003722Y008387D01*
X004029Y008978D02*
X002470Y008978D01*
X002470Y009076D02*
X004152Y009076D01*
X004335Y009175D02*
X003920Y009175D01*
X002565Y010357D02*
X002470Y010357D01*
X002470Y010455D02*
X002597Y010455D01*
X002641Y010554D02*
X002470Y010554D01*
X002470Y010652D02*
X002699Y010652D01*
X002773Y010751D02*
X002470Y010751D01*
X002470Y010849D02*
X002870Y010849D01*
X003005Y010948D02*
X002470Y010948D01*
X002470Y010258D02*
X002543Y010258D01*
X002532Y010160D02*
X002470Y010160D01*
X002470Y006712D02*
X002764Y006712D01*
X002663Y006614D02*
X002470Y006614D01*
X002470Y006515D02*
X002595Y006515D01*
X002554Y006417D02*
X002470Y006417D01*
X002470Y006318D02*
X002540Y006318D01*
X002540Y006220D02*
X002470Y006220D01*
X002470Y006121D02*
X002565Y006121D01*
X002606Y006023D02*
X002470Y006023D01*
X002470Y005924D02*
X002689Y005924D01*
X002827Y005826D02*
X002470Y005826D01*
X002470Y004742D02*
X002776Y004742D01*
X002661Y004644D02*
X002470Y004644D01*
X002470Y004545D02*
X002596Y004545D01*
X002557Y004447D02*
X002470Y004447D01*
X003350Y004447D02*
X003450Y004447D01*
X003450Y004545D02*
X003350Y004545D01*
X003350Y004644D02*
X003450Y004644D01*
X003450Y004742D02*
X003350Y004742D01*
X003350Y004151D02*
X003450Y004151D01*
X003450Y004053D02*
X003350Y004053D01*
X003350Y003954D02*
X003450Y003954D01*
X003450Y003856D02*
X003350Y003856D01*
X007734Y012721D02*
X008530Y012721D01*
X008530Y012819D02*
X007820Y012819D01*
X007820Y012918D02*
X008530Y012918D01*
X008530Y013016D02*
X007820Y013016D01*
X007820Y013115D02*
X008530Y013115D01*
X008530Y013213D02*
X007820Y013213D01*
X007820Y013312D02*
X008530Y013312D01*
X008530Y013410D02*
X007820Y013410D01*
X007820Y013509D02*
X008530Y013509D01*
X008530Y013607D02*
X007820Y013607D01*
X007820Y013706D02*
X008530Y013706D01*
X008530Y013804D02*
X007820Y013804D01*
X007820Y013903D02*
X008530Y013903D01*
X008530Y014001D02*
X007820Y014001D01*
X007820Y014100D02*
X008530Y014100D01*
X008530Y014198D02*
X007820Y014198D01*
X007820Y014297D02*
X008530Y014297D01*
X008530Y014395D02*
X007820Y014395D01*
X007820Y014494D02*
X008530Y014494D01*
X008530Y014592D02*
X007820Y014592D01*
X007820Y014691D02*
X008530Y014691D01*
X008437Y014789D02*
X008447Y014827D01*
X008447Y014888D02*
X008530Y014888D01*
X008530Y014986D02*
X008447Y014986D01*
X008530Y015085D02*
X008148Y015085D01*
X008148Y014986D02*
X008052Y014986D01*
X008052Y014888D02*
X008148Y014888D01*
X008148Y014789D02*
X008052Y014789D01*
X008447Y015183D02*
X008530Y015183D01*
X008530Y015282D02*
X008447Y015282D01*
X008408Y015380D02*
X008530Y015380D01*
X008530Y015479D02*
X008447Y015479D01*
X008447Y015577D02*
X008530Y015577D01*
X008530Y015676D02*
X008447Y015676D01*
X008447Y015774D02*
X008530Y015774D01*
X008530Y015873D02*
X008447Y015873D01*
X008447Y015971D02*
X008530Y015971D01*
X008530Y016070D02*
X008410Y016070D01*
X008410Y016168D02*
X008530Y016168D01*
X008530Y016267D02*
X008410Y016267D01*
X008428Y016365D02*
X008530Y016365D01*
X008530Y016464D02*
X008447Y016464D01*
X008447Y016562D02*
X008530Y016562D01*
X008530Y016661D02*
X008447Y016661D01*
X008447Y016759D02*
X008530Y016759D01*
X008530Y016858D02*
X008447Y016858D01*
X008432Y016956D02*
X008530Y016956D01*
X008530Y017055D02*
X008447Y017055D01*
X008447Y017153D02*
X008530Y017153D01*
X008530Y017252D02*
X008447Y017252D01*
X008447Y017350D02*
X008530Y017350D01*
X008530Y017449D02*
X008447Y017449D01*
X008447Y017547D02*
X008530Y017547D01*
X008530Y017646D02*
X008412Y017646D01*
X008530Y017744D02*
X005810Y017744D01*
X005190Y017744D02*
X003210Y017744D01*
X003212Y017646D02*
X003237Y017646D01*
X003400Y017449D02*
X007600Y017449D01*
X007600Y017350D02*
X003400Y017350D01*
X003400Y017252D02*
X007600Y017252D01*
X007600Y017153D02*
X003400Y017153D01*
X003400Y017055D02*
X007600Y017055D01*
X007600Y016956D02*
X003400Y016956D01*
X003400Y016858D02*
X007600Y016858D01*
X007600Y016759D02*
X003400Y016759D01*
X003400Y016661D02*
X004701Y016661D01*
X004621Y016562D02*
X003400Y016562D01*
X003400Y016464D02*
X004621Y016464D01*
X004621Y016365D02*
X003400Y016365D01*
X003400Y016267D02*
X004621Y016267D01*
X004621Y016168D02*
X003400Y016168D01*
X003400Y016070D02*
X004621Y016070D01*
X004621Y015971D02*
X003400Y015971D01*
X003400Y015873D02*
X004621Y015873D01*
X004621Y015774D02*
X003400Y015774D01*
X003400Y015676D02*
X004621Y015676D01*
X004621Y015577D02*
X003400Y015577D01*
X003400Y015479D02*
X004717Y015479D01*
X002553Y014986D02*
X002470Y014986D01*
X002470Y014888D02*
X002553Y014888D01*
X005810Y019419D02*
X008530Y019419D01*
X008530Y019517D02*
X005810Y019517D01*
X007763Y017646D02*
X007788Y017646D01*
X008505Y020207D02*
X008530Y020207D01*
X008530Y020305D02*
X008473Y020305D01*
X008530Y020404D02*
X008414Y020404D01*
X008319Y020502D02*
X008530Y020502D01*
X008530Y022374D02*
X008281Y022374D01*
X008394Y022472D02*
X008530Y022472D01*
X008530Y022571D02*
X008458Y022571D01*
X008498Y022669D02*
X008530Y022669D01*
X008530Y022768D02*
X008047Y022768D01*
X008514Y022866D02*
X008530Y022866D01*
X008530Y022965D02*
X008493Y022965D01*
X008530Y023063D02*
X008452Y023063D01*
X008381Y023162D02*
X008530Y023162D01*
X008530Y023260D02*
X008259Y023260D01*
X008266Y023359D02*
X008530Y023359D01*
X008530Y023457D02*
X008379Y023457D01*
X008454Y023556D02*
X008530Y023556D01*
X008530Y023654D02*
X008495Y023654D01*
X008517Y023753D02*
X008530Y023753D01*
X008517Y023851D02*
X008530Y023851D01*
X008530Y023950D02*
X008502Y023950D01*
X008530Y024048D02*
X008461Y024048D01*
X008396Y024147D02*
X008530Y024147D01*
X008530Y024245D02*
X008297Y024245D01*
X008530Y024344D02*
X005599Y024344D01*
X005620Y024442D02*
X008530Y024442D01*
X008530Y024541D02*
X005620Y024541D01*
X005604Y024639D02*
X008530Y024639D01*
X008530Y024738D02*
X005563Y024738D01*
X005497Y024836D02*
X008530Y024836D01*
X008530Y024935D02*
X005398Y024935D01*
X005774Y025132D02*
X008530Y025132D01*
X008530Y025230D02*
X005870Y025230D01*
X005912Y025329D02*
X008488Y025329D01*
X008426Y025427D02*
X005974Y025427D01*
X006062Y025526D02*
X008338Y025526D01*
X008251Y025624D02*
X006149Y025624D01*
X006238Y025723D02*
X008162Y025723D01*
X008006Y025821D02*
X006394Y025821D01*
X006550Y025920D02*
X007850Y025920D01*
X007556Y026018D02*
X006844Y026018D01*
X006696Y024245D02*
X005558Y024245D01*
X005484Y024147D02*
X006598Y024147D01*
X006615Y023457D02*
X006269Y023457D01*
X005814Y023950D02*
X004586Y023950D01*
X004488Y024048D02*
X004826Y024048D01*
X004716Y024147D02*
X004484Y024147D01*
X004558Y024245D02*
X004642Y024245D01*
X004599Y024344D02*
X004601Y024344D01*
X004563Y024738D02*
X004637Y024738D01*
X004703Y024836D02*
X004497Y024836D01*
X004398Y024935D02*
X004802Y024935D01*
X005374Y024048D02*
X005912Y024048D01*
X005715Y023851D02*
X004685Y023851D01*
X003703Y024836D02*
X003497Y024836D01*
X003563Y024738D02*
X003637Y024738D01*
X003802Y024935D02*
X003398Y024935D01*
X002802Y024935D02*
X002470Y024935D01*
X002470Y025033D02*
X008530Y025033D01*
X007696Y024245D02*
X007297Y024245D01*
X007396Y024147D02*
X007598Y024147D01*
X004161Y022177D02*
X003402Y022177D01*
X003555Y022078D02*
X004142Y022078D01*
X004044Y021980D02*
X003646Y021980D01*
X003687Y021881D02*
X003945Y021881D01*
X003847Y021783D02*
X003720Y021783D01*
X003720Y021684D02*
X003748Y021684D01*
X003692Y022768D02*
X002470Y022768D01*
X002470Y022866D02*
X003593Y022866D01*
X003495Y022965D02*
X002470Y022965D01*
X002470Y023063D02*
X003396Y023063D01*
X003298Y023162D02*
X002470Y023162D01*
X002470Y023260D02*
X003199Y023260D01*
X003101Y023359D02*
X002470Y023359D01*
X002470Y023457D02*
X003002Y023457D01*
X002904Y023556D02*
X002470Y023556D01*
X002470Y023654D02*
X002824Y023654D01*
X002790Y023753D02*
X002470Y023753D01*
X002470Y023851D02*
X002790Y023851D01*
X002790Y023950D02*
X002470Y023950D01*
X002470Y024048D02*
X002790Y024048D01*
X002716Y024147D02*
X002470Y024147D01*
X002470Y024245D02*
X002642Y024245D01*
X002601Y024344D02*
X002470Y024344D01*
X002470Y024442D02*
X002580Y024442D01*
X002580Y024541D02*
X002470Y024541D01*
X002470Y024639D02*
X002596Y024639D01*
X002637Y024738D02*
X002470Y024738D01*
X002470Y024836D02*
X002703Y024836D01*
D24*
X003100Y024498D02*
X003100Y023798D01*
X003900Y022998D01*
X005100Y022998D01*
X005500Y022598D01*
X005500Y018518D01*
X005500Y015761D01*
X006300Y013898D02*
X006887Y013311D01*
X006887Y012198D01*
X006887Y011011D01*
X007365Y010532D01*
X007365Y009598D01*
X008100Y011532D02*
X008100Y011811D01*
X007713Y012198D01*
X006765Y013432D02*
X006300Y013898D01*
X008100Y015732D02*
X008100Y016663D01*
X008100Y017332D02*
X007435Y017332D01*
X007200Y017098D01*
X004600Y018528D02*
X004590Y018518D01*
X003320Y018518D01*
X002900Y018098D01*
X002900Y017332D01*
X002900Y016663D02*
X002900Y015732D01*
X004600Y018528D02*
X004600Y018590D01*
X004602Y018588D01*
X004600Y018590D02*
X004600Y020153D01*
X003200Y020698D02*
X004545Y022043D01*
X004600Y022043D01*
X004600Y023498D02*
X004100Y023998D01*
X004100Y024498D01*
X004600Y023498D02*
X005800Y023498D01*
X006000Y023298D01*
X006000Y021598D01*
X006504Y021094D01*
X007997Y021094D01*
X005800Y023498D02*
X006100Y023798D01*
X006986Y023798D01*
X006997Y023810D01*
X007997Y023810D01*
X007997Y003598D02*
X006997Y003598D01*
X006997Y021094D02*
X007997Y021094D01*
D25*
X007200Y017098D03*
X007200Y015798D03*
X007200Y014598D03*
X006300Y013898D03*
X005500Y013298D03*
X004700Y013898D03*
X003800Y013298D03*
X003800Y014598D03*
X003800Y015798D03*
X003800Y017098D03*
X007200Y013298D03*
X007900Y006898D03*
X007900Y005698D03*
D26*
X007900Y004798D01*
X007600Y004498D01*
X005700Y004498D01*
X005100Y003898D01*
X005100Y002498D01*
X006426Y007810D02*
X006426Y008224D01*
X007365Y009163D01*
X007365Y009598D01*
X007365Y009163D02*
X007365Y008001D01*
X007174Y007810D01*
M02*
